<svg id="Group_289" data-name="Group 289" xmlns="http://www.w3.org/2000/svg" width="187.908" height="71.793" viewBox="0 0 187.908 71.793">
  <path id="Path_11" data-name="Path 11" d="M596.159-84.192c0-5.886-.022-11.771.011-17.656.012-2.053.022-4.457,2.912-4.29,2.357.136,2.581,2.239,2.6,4.172q.012,1.38.019,2.758c.037,7.84.037,7.84,7.634,6.2,5.4-1.163,11.321,1.639,14.494,6.853,3.072,5.047,2.443,13.429-1.348,17.97-4.2,5.036-10.167,6.858-15.778,4.385-2.508-1.106-3.81-2.083-6.165.977-2.1,2.731-4.206.391-4.338-2.614-.138-3.12-.018-6.252-.014-9.379s0-6.252,0-9.379Zm24.286,5.825c-.136-5.295-4.448-9.764-9.315-9.657-5.463.121-9.411,4.392-9.375,10.143.033,5.593,4.383,10.162,9.543,10.025C616.3-67.99,620.587-72.919,620.445-78.367Z" transform="translate(-596.132 113.934)" fill="#fcc250"/>
  <path id="Path_12" data-name="Path 12" d="M736.53-77.439a22.791,22.791,0,0,0-3.843.033c-2.108.473-5.818-1.589-6.031,1.563-.225,3.347,2.782,5.866,6.353,6.424a12.926,12.926,0,0,0,9.874-2.3c1.429-1.041,3.04-1.881,4.343-.162,1.279,1.688.081,3.01-1.258,4.189-5.38,4.738-14.692,4.722-20.31-.08-5.76-4.923-7.048-13.934-2.852-19.947,4.654-6.669,12.272-8.672,19.387-4.97a12.548,12.548,0,0,1,3.875,2.992c2.381,2.9,4.382,6.3,3.009,10.084-1.43,3.944-5.555,1.534-8.34,2.508C739.213-76.571,737.227-77.363,736.53-77.439ZM727.2-82.906c5.214,2.2,10.585.853,15.9.64.207-.009,1.445-.65.292-1.381l-1.245-2.071c-3.584-5.067-8.469-5.433-13.305-1C727.764-85.677,726.277-84.811,727.2-82.906Z" transform="translate(-582.874 115.174)" fill="#fcc250"/>
  <path id="Path_13" data-name="Path 13" d="M643.75-64.147c-7.477-.064-15.521-7.6-15.4-14.421.148-8.492,7.461-15.929,15.719-15.988,8.224-.058,15.575,7.457,15.377,15.72C659.248-70.716,652.152-64.074,643.75-64.147Zm9.841-14.889c.131-5.86-3.648-10.081-9.193-10.272a9.673,9.673,0,0,0-9.994,9.569c-.214,5.691,3.792,10.335,8.943,10.371C649.667-69.324,653.453-72.9,653.591-79.036Z" transform="translate(-592.693 115.171)" fill="#fcc250"/>
  <path id="Path_14" data-name="Path 14" d="M703.461-45.023c-1.461-.091-2.206-1.2-3.067-2.15C691.989-56.458,683.607-65.762,675.155-75c-1.855-2.029-1.828-3.766-.018-5.781,5.777-6.43,11.491-12.918,17.215-19.4,1.3-1.473,2.818-2.835,4.7-1.355,2.335,1.836.462,3.451-.616,5.174-3.445,5.508-8.548,9.528-12.866,14.224-3.2,3.475-2.727,5.348.269,8.473C690.975-66.22,697.7-58.384,704.588-50.7c1.134,1.266,2.215,2.575,1.17,4.409A2.568,2.568,0,0,1,703.461-45.023Z" transform="translate(-587.845 114.358)" fill="#fcfbfb"/>
  <path id="Path_15" data-name="Path 15" d="M706.934-64.122c-3.2.266-6.276-1.293-9.018-3.62-1.212-1.028-1.9-2.413-.828-3.888,1.121-1.544,2.668-1.24,3.846-.141a8.907,8.907,0,0,0,8.111,2.342c1.8-.332,3.656-.88,3.8-3.252.127-2.083-1.468-2.892-2.949-3.553-2.491-1.11-5.172-1.813-7.613-3.014-3.617-1.779-5.042-4.965-3.949-8.761,1.286-4.462,4.958-6.192,9.28-6.547a9.075,9.075,0,0,1,8.938,4.294,2.125,2.125,0,0,1-.242,2.573,1.933,1.933,0,0,1-2.874.371,28.63,28.63,0,0,0-3.971-1.731c-2.238-1.066-4.28-1.4-5.342,1.471-1.037,2.8.761,4.075,2.973,4.978,1.191.485,2.446.809,3.66,1.238,6.386,2.26,8.935,5.537,7.919,10.16C717.742-66.965,713.1-64.025,706.934-64.122Z" transform="translate(-585.413 115.167)" fill="#fcc250"/>
  <path id="Path_16" data-name="Path 16" d="M682.294-93.538a8.16,8.16,0,0,1-6.3,4.45c-4.919,1-7.563,4.446-7.7,9.458-.138,4.986,2.34,8.562,7.037,10.1,2.688.88,5.282,1.44,6.319,4.49-7.262,1.742-12.509-.059-16.278-5.553-3.891-5.672-3.835-12.21.149-17.531C669.561-93.527,675.554-95.518,682.294-93.538Z" transform="translate(-589.049 115.2)" fill="#fcc250"/>
  <path id="Path_17" data-name="Path 17" d="M757.51-66.063c-3.514,2.125-5.689,2.093-5.579-2.968.158-7.335.057-14.676,0-22.015-.029-3.491,1.713-5.578,4.455-2.942,2.249,2.164,3.478,1.483,5.541.649,1.728-.7,4.169-2.308,5.205.452,1.222,3.253-1.834,3.239-3.87,3.849-2.3.688-4.511,1.545-4.61,4.516C756.066-78.506,757.965-72.212,757.51-66.063Z" transform="translate(-579.502 115.105)" fill="#fcc250"/>
  <path id="Path_18" data-name="Path 18" d="M680.108-107.552c-.392,2.3,1,6.055-2.718,6.083-4.211.031-2.684-4.006-2.879-6.433-.175-2.188-.807-5.457,2.857-5.273C680.851-113,679.808-109.779,680.108-107.552Z" transform="translate(-587.782 113.183)" fill="#fcfbfb"/>
  <path id="Path_19" data-name="Path 19" d="M680.172-53.14c-.394,2.459.686,5.824-2.7,5.958-3.941.156-3.009-3.41-2.948-5.773.061-2.334-1.059-6.031,2.766-6C681.079-58.92,679.574-55.147,680.172-53.14Z" transform="translate(-587.78 118.971)" fill="#fcfbfb"/>
  <path id="Path_20" data-name="Path 20" d="M689.321-86.023c1.451,2.821,1.279,5.392,1.075,7.924-.125,1.549-.049,3.8-2.024,3.871-1.625.055-2.718-1.891-3.1-3.452C684.379-81.291,685.683-84.1,689.321-86.023Z" transform="translate(-586.646 116.082)" fill="#fcc250"/>
</svg>
