<?xml version="1.0" encoding="utf-8"?>
<!-- Generator: Adobe Illustrator 21.1.0, SVG Export Plug-In . SVG Version: 6.00 Build 0)  -->
<svg version="1.1" id="Capa_1" xmlns="http://www.w3.org/2000/svg" xmlns:xlink="http://www.w3.org/1999/xlink" x="0px" y="0px"
	 viewBox="0 0 386 245" style="enable-background:new 0 0 386 245;" xml:space="preserve">
<style type="text/css">
	.st0{fill:#FFFFFF;}
	.st1{opacity:0.9;fill:#FFFFFF;}
</style>
<title>logo-tu-crm-light</title>
<g>
	<path class="st0" d="M12.3,44.4c0.4,2.8,1.2,4.9,2.3,6.3c2.1,2.5,5.8,3.8,11,3.8c3.1,0,5.6-0.3,7.6-1c3.7-1.3,5.5-3.7,5.5-7.1
		c0-2-0.9-3.6-2.7-4.7c-1.8-1.1-4.7-2-8.6-2.9l-6.7-1.5c-6.6-1.4-11.1-3-13.5-4.7C3.1,29.7,1,25.3,1,19.2C1,13.7,3,9.1,7.1,5.5
		C11.2,1.8,17.1,0,25,0c6.6,0,12.2,1.7,16.8,5.2c4.6,3.4,7.1,8.4,7.3,15H36.8c-0.2-3.7-1.9-6.3-5-7.9c-2.1-1-4.6-1.5-7.7-1.5
		c-3.4,0-6.1,0.7-8.1,2c-2,1.3-3,3.2-3,5.6c0,2.2,1,3.8,3,4.9c1.3,0.7,4,1.6,8.2,2.6l10.8,2.6c4.7,1.1,8.3,2.6,10.7,4.5
		c3.7,2.9,5.5,7.1,5.5,12.6c0,5.6-2.2,10.3-6.5,14C40.2,63.2,34.1,65,26.1,65C18,65,11.6,63.2,7,59.5c-4.6-3.7-7-8.7-7-15.1H12.3z"
		/>
	<path class="st0" d="M77.2,35.7c2.2-0.3,3.8-0.6,4.8-1c1.7-0.7,2.6-1.9,2.6-3.4c0-1.9-0.7-3.2-2-3.9c-1.3-0.7-3.2-1.1-5.8-1.1
		c-2.9,0-4.9,0.7-6.1,2.1c-0.8,1-1.4,2.4-1.7,4.2H57.5c0.3-4,1.4-7.3,3.4-9.8c3.2-4,8.6-6,16.3-6c5,0,9.5,1,13.4,3s5.8,5.7,5.8,11.2
		v20.9c0,1.4,0,3.2,0.1,5.3c0.1,1.6,0.3,2.6,0.7,3.2c0.4,0.6,1,1,1.8,1.4v1.8H86c-0.4-0.9-0.6-1.8-0.8-2.6c-0.1-0.8-0.3-1.7-0.3-2.8
		c-1.7,1.8-3.6,3.3-5.7,4.6c-2.6,1.5-5.5,2.2-8.7,2.2c-4.1,0-7.6-1.2-10.3-3.5s-4.1-5.7-4.1-10c0-5.6,2.2-9.7,6.5-12.2
		c2.4-1.4,5.9-2.3,10.5-2.9L77.2,35.7z M84.5,41.3c-0.8,0.5-1.5,0.9-2.3,1.2c-0.8,0.3-1.8,0.6-3.2,0.8l-2.7,0.5
		c-2.5,0.4-4.4,1-5.5,1.6c-1.9,1.1-2.8,2.8-2.8,5.1c0,2,0.6,3.5,1.7,4.4c1.1,0.9,2.5,1.4,4.2,1.4c2.6,0,5-0.8,7.2-2.3
		c2.2-1.5,3.3-4.2,3.4-8.2V41.3z"/>
	<path class="st0" d="M119,63.4H107V1.8H119V63.4z"/>
	<path class="st0" d="M160.3,18.8c3.2,1.4,5.8,3.7,7.9,6.7c1.9,2.7,3.1,5.8,3.6,9.4c0.3,2.1,0.5,5.1,0.4,9H139
		c0.2,4.6,1.8,7.8,4.8,9.6c1.8,1.1,4,1.7,6.6,1.7c2.7,0,4.9-0.7,6.6-2.1c0.9-0.8,1.7-1.8,2.5-3.1h12.2c-0.3,2.7-1.8,5.5-4.4,8.2
		c-4.1,4.4-9.8,6.6-17.1,6.6c-6.1,0-11.4-1.9-16.1-5.6c-4.6-3.7-7-9.8-7-18.2c0-7.9,2.1-13.9,6.3-18.2c4.2-4.2,9.6-6.3,16.3-6.3
		C153.5,16.6,157.1,17.4,160.3,18.8z M142.5,29.1c-1.7,1.7-2.7,4.1-3.2,7.1h20.5c-0.2-3.2-1.3-5.6-3.2-7.2c-1.9-1.6-4.3-2.5-7.1-2.5
		C146.5,26.5,144.1,27.3,142.5,29.1z"/>
	<path class="st0" d="M187.4,48.9c0.3,2.1,0.8,3.6,1.6,4.5c1.5,1.6,4.2,2.4,8.2,2.4c2.4,0,4.2-0.3,5.6-1c1.4-0.7,2.1-1.7,2.1-3.1
		c0-1.3-0.6-2.4-1.7-3.1c-1.1-0.7-5.3-1.9-12.5-3.6c-5.2-1.3-8.8-2.9-10.9-4.8c-2.1-1.9-3.2-4.6-3.2-8.2c0-4.2,1.7-7.8,5-10.9
		c3.3-3,8-4.5,14-4.5c5.7,0,10.3,1.1,13.9,3.4c3.6,2.3,5.7,6.2,6.2,11.8h-11.9c-0.2-1.5-0.6-2.7-1.3-3.6c-1.3-1.6-3.6-2.4-6.7-2.4
		c-2.6,0-4.5,0.4-5.6,1.2c-1.1,0.8-1.7,1.8-1.7,2.8c0,1.4,0.6,2.4,1.8,3c1.2,0.6,5.3,1.7,12.4,3.3c4.7,1.1,8.3,2.8,10.7,5.1
		c2.3,2.3,3.5,5.1,3.5,8.6c0,4.5-1.7,8.2-5,11.1c-3.4,2.9-8.6,4.3-15.6,4.3c-7.2,0-12.5-1.5-15.9-4.5c-3.4-3-5.1-6.9-5.1-11.6H187.4
		z"/>
	<path class="st1" d="M267.7,1.8h18.5v61.6h-12V21.7c0-1.2,0-2.9,0-5c0-2.2,0-3.8,0-5l-11.7,51.7h-12.5l-11.6-51.7c0,1.2,0,2.8,0,5
		c0,2.2,0,3.8,0,5v41.7h-12V1.8h18.7l11.2,48.5L267.7,1.8z"/>
	<path class="st1" d="M315.2,35.7c2.2-0.3,3.8-0.6,4.8-1c1.7-0.7,2.6-1.9,2.6-3.4c0-1.9-0.7-3.2-2-3.9c-1.3-0.7-3.2-1.1-5.8-1.1
		c-2.9,0-4.9,0.7-6.1,2.1c-0.8,1-1.4,2.4-1.7,4.2h-11.5c0.3-4,1.4-7.3,3.4-9.8c3.2-4,8.6-6,16.3-6c5,0,9.5,1,13.4,3
		c3.9,2,5.8,5.7,5.8,11.2v20.9c0,1.4,0,3.2,0.1,5.3c0.1,1.6,0.3,2.6,0.7,3.2c0.4,0.6,1,1,1.8,1.4v1.8h-13c-0.4-0.9-0.6-1.8-0.8-2.6
		c-0.1-0.8-0.3-1.7-0.3-2.8c-1.7,1.8-3.6,3.3-5.7,4.6c-2.6,1.5-5.5,2.2-8.7,2.2c-4.1,0-7.6-1.2-10.3-3.5c-2.7-2.4-4.1-5.7-4.1-10
		c0-5.6,2.2-9.7,6.5-12.2c2.4-1.4,5.9-2.3,10.5-2.9L315.2,35.7z M322.5,41.3c-0.8,0.5-1.5,0.9-2.3,1.2c-0.8,0.3-1.8,0.6-3.2,0.8
		l-2.7,0.5c-2.5,0.4-4.4,1-5.5,1.6c-1.9,1.1-2.8,2.8-2.8,5.1c0,2,0.6,3.5,1.7,4.4c1.1,0.9,2.5,1.4,4.2,1.4c2.6,0,5-0.8,7.2-2.3
		c2.2-1.5,3.3-4.2,3.4-8.2V41.3z"/>
	<path class="st1" d="M381.5,20.5c3,2.5,4.5,6.6,4.5,12.3v30.7h-12.2V35.7c0-2.4-0.3-4.2-1-5.5c-1.2-2.3-3.4-3.5-6.6-3.5
		c-4,0-6.8,1.7-8.3,5.1c-0.8,1.8-1.2,4.1-1.2,6.9v24.7h-11.9V17.9h11.5v6.6c1.5-2.3,3-4,4.3-5.1c2.4-1.8,5.5-2.8,9.3-2.8
		C374.7,16.8,378.6,18,381.5,20.5z"/>
</g>
<g>
	<path class="st1" d="M271.7,100.9c0.7,0.3,1.3,0.7,2,1C273,101.6,272.4,101.2,271.7,100.9z"/>
	<path class="st1" d="M256,94.1c1.4,0.5,2.7,1,4,1.6C258.7,95.2,257.4,94.6,256,94.1z"/>
	<path class="st1" d="M265.1,97.8c0.7,0.3,1.5,0.7,2.2,1C266.6,98.5,265.8,98.2,265.1,97.8z"/>
	<path class="st1" d="M261.1,96.1c0.9,0.4,1.8,0.8,2.7,1.1C262.9,96.9,262,96.5,261.1,96.1z"/>
	<path class="st1" d="M251.7,92.6c1.2,0.4,2.3,0.8,3.5,1.2C254,93.4,252.9,93,251.7,92.6z"/>
	<path class="st1" d="M247.2,91.1c1,0.3,2,0.7,3,1C249.2,91.7,248.2,91.4,247.2,91.1z"/>
	<path class="st1" d="M185.9,110.4c-3.3-1.3-5.4-4.3-6.9-7.9c-1.5-3.6-1.8-14.7,0-17.5c0.4-0.6,1.2-1.2,2.1-1.7
		c-21.4,1.7-45,7.6-69.8,20.5c-5.3,2.8-7.9,9.1-5.9,14.8l30.9,91.5c0.9,2.6,2.6,4.9,5,6.4l41.9,26.9c-7.1-8.2-14.7-18.9-14.7-18.9
		S189.2,111.7,185.9,110.4z"/>
	<path class="st1" d="M210.6,83.6c-1.3-0.1-2.6-0.2-3.8-0.3c0,0,0,0,0,0C208.1,83.4,209.3,83.5,210.6,83.6z"/>
	<path class="st1" d="M212.9,83.9c1.3,0.1,2.6,0.3,3.8,0.5C215.5,84.2,214.2,84,212.9,83.9z"/>
	<path class="st1" d="M274.5,102.3c0.9,0.5,1.7,0.9,2.5,1.3C276.2,103.2,275.4,102.8,274.5,102.3z"/>
	<path class="st1" d="M268.6,99.4c0.7,0.3,1.4,0.6,2,1C269.9,100,269.2,99.7,268.6,99.4z"/>
	<path class="st1" d="M224.6,85.5c1.9,0.3,3.7,0.7,5.5,1.1C228.3,86.2,226.5,85.8,224.6,85.5z"/>
	<path class="st1" d="M218.9,84.6c1.4,0.2,2.8,0.4,4.1,0.7C221.7,85,220.3,84.8,218.9,84.6z"/>
	<path class="st1" d="M237.2,88.2c1.1,0.3,2.2,0.6,3.3,0.9C239.4,88.8,238.3,88.5,237.2,88.2z"/>
	<path class="st1" d="M231.1,86.8c1.4,0.3,2.9,0.6,4.2,1C234,87.5,232.6,87.1,231.1,86.8z"/>
	<path class="st1" d="M242.4,89.6c1,0.3,2,0.6,3,0.9C244.4,90.2,243.4,89.9,242.4,89.6z"/>
	<path class="st0" d="M277,103.7c-0.8-0.4-1.6-0.9-2.5-1.3c-0.3-0.1-0.6-0.3-0.9-0.4c-0.6-0.3-1.3-0.7-2-1c-0.4-0.2-0.7-0.4-1.1-0.5
		c-0.7-0.3-1.3-0.6-2-1c-0.4-0.2-0.9-0.4-1.3-0.6c-0.7-0.3-1.4-0.7-2.2-1c-0.4-0.2-0.9-0.4-1.3-0.6c-0.9-0.4-1.8-0.8-2.7-1.1
		c-0.4-0.1-0.7-0.3-1.1-0.4c-1.3-0.5-2.6-1-4-1.6c-0.3-0.1-0.5-0.2-0.8-0.3c-1.1-0.4-2.3-0.8-3.5-1.2c-0.5-0.2-1-0.3-1.5-0.5
		c-1-0.3-2-0.7-3-1c-0.6-0.2-1.2-0.4-1.8-0.6c-1-0.3-2-0.6-3-0.9c-0.6-0.2-1.2-0.4-1.9-0.5c-1.1-0.3-2.2-0.6-3.3-0.9
		c-0.6-0.2-1.2-0.3-1.8-0.5c-1.4-0.3-2.8-0.7-4.2-1c-0.4-0.1-0.7-0.2-1.1-0.2c-1.8-0.4-3.6-0.7-5.5-1.1c-0.5-0.1-1-0.2-1.6-0.3
		c-1.4-0.2-2.7-0.5-4.1-0.7c-0.7-0.1-1.4-0.2-2.1-0.3c-1.3-0.2-2.5-0.3-3.8-0.5c-0.8-0.1-1.5-0.2-2.3-0.2c-1.3-0.1-2.6-0.2-3.8-0.3
		c1,0.5,1.8,1.1,2.2,1.7c1.8,2.8,1.5,14,0,17.5c-1.5,3.6-3.6,6.6-6.9,7.9c-3.3,1.3,17.3,114.1,17.3,114.1s-8.6,12.1-16,20.4
		l42.4-26.2c2.4-1.5,4.2-3.8,5.2-6.5l31.7-94C284.6,112.7,282.2,106.5,277,103.7z"/>
</g>
</svg>
