<svg xmlns="http://www.w3.org/2000/svg" viewBox="0 0 269.76 65.75"><defs><style>.cls-1{fill:#cc9a44;}.cls-2{fill:#481465;}</style></defs><title>logo</title><g id="Capa_2" data-name="Capa 2"><g id="Capa_1-2" data-name="Capa 1"><rect class="cls-1" x="123.45" y="56.69" width="1.29" height="7.05"/><path class="cls-1" d="M132.65,58.42h1.27v.83a2,2,0,0,1,1.73-.94,1.86,1.86,0,0,1,2,2v3.38h-1.27v-3c0-.82-.43-1.3-1.18-1.3a1.2,1.2,0,0,0-1.25,1.32v3h-1.27Z"/><path class="cls-1" d="M145.52,62.27v-2.8h-.7v-1h.7V57h1.27v1.46h1.49v1h-1.49v2.61c0,.47.25.66.68.66a1.75,1.75,0,0,0,.78-.18v1a2.26,2.26,0,0,1-1.14.27,1.39,1.39,0,0,1-1.59-1.56"/><path class="cls-1" d="M155.19,61.1v0a2.69,2.69,0,0,1,2.71-2.77,2.61,2.61,0,0,1,2.65,2.86c0,.11,0,.23,0,.35h-4.07a1.53,1.53,0,0,0,1.6,1.34,2,2,0,0,0,1.49-.63l.75.63a2.83,2.83,0,0,1-2.26,1,2.71,2.71,0,0,1-2.85-2.76m4.1-.39a1.4,1.4,0,0,0-1.4-1.4,1.47,1.47,0,0,0-1.44,1.4Z"/><path class="cls-1" d="M167.94,58.42h1.27v1.2a2,2,0,0,1,1.95-1.3v1.29h-.07c-1.11,0-1.88.7-1.88,2.1v2h-1.27Z"/><path class="cls-1" d="M178.37,58.42h1.27v.83a2,2,0,0,1,1.73-.94,1.86,1.86,0,0,1,2,2v3.38h-1.26v-3c0-.82-.43-1.3-1.18-1.3a1.2,1.2,0,0,0-1.25,1.32v3h-1.27Z"/><path class="cls-1" d="M194.36,63.74v-.65a2.3,2.3,0,0,1-1.8.76,1.75,1.75,0,0,1-2-1.64v0c0-1.18.95-1.74,2.25-1.74a4.87,4.87,0,0,1,1.53.22v-.1c0-.74-.49-1.14-1.36-1.14a4,4,0,0,0-1.59.33l-.35-1a5,5,0,0,1,2.11-.45c1.64,0,2.43.83,2.43,2.25v3.15Zm0-2.22a3.57,3.57,0,0,0-1.27-.22c-.8,0-1.27.31-1.27.83v0c0,.5.47.78,1.07.78.84,0,1.47-.45,1.47-1.11Z"/><path class="cls-1" d="M203.44,62.27v-2.8h-.71v-1h.71V57h1.26v1.46h1.49v1H204.7v2.61c0,.47.26.66.69.66a1.75,1.75,0,0,0,.78-.18v1a2.29,2.29,0,0,1-1.14.27,1.39,1.39,0,0,1-1.59-1.56"/><path class="cls-1" d="M213.6,56.45H215v1.16H213.6Zm.05,2h1.27v5.32h-1.27Z"/><path class="cls-1" d="M222.37,61.11v0a3,3,0,0,1,5.9,0v0a3,3,0,0,1-5.9,0m4.63,0v0a1.67,1.67,0,0,0-1.69-1.71,1.63,1.63,0,0,0-1.67,1.69v0a1.67,1.67,0,0,0,1.68,1.71A1.63,1.63,0,0,0,227,61.11"/><path class="cls-1" d="M235.66,58.42h1.27v.83a2,2,0,0,1,1.73-.94,1.86,1.86,0,0,1,2,2v3.38h-1.27v-3c0-.82-.43-1.3-1.18-1.3a1.2,1.2,0,0,0-1.25,1.32v3h-1.27Z"/><path class="cls-1" d="M251.65,63.74v-.65a2.28,2.28,0,0,1-1.79.76c-1.05,0-2-.57-2-1.64v0c0-1.18,1-1.74,2.24-1.74a4.87,4.87,0,0,1,1.53.22v-.1c0-.74-.48-1.14-1.36-1.14a4,4,0,0,0-1.58.33l-.35-1a4.92,4.92,0,0,1,2.11-.45c1.63,0,2.43.83,2.43,2.25v3.15Zm0-2.22a3.49,3.49,0,0,0-1.27-.22c-.79,0-1.26.31-1.26.83v0c0,.5.47.78,1.06.78.84,0,1.47-.45,1.47-1.11Z"/><rect class="cls-1" x="260.6" y="56.39" width="1.27" height="7.35"/><rect class="cls-2" x="101.29" y="51.84" width="168.47" height="1.25"/><path class="cls-1" d="M131.27,7.17a83.7,83.7,0,0,0-8.63,4.91c-11.92,7.91-20,16.8-31.7,30.87C85,50,79.58,56.4,74.65,61.66c-2.52,2.63-3.6,3.55-5.13,3.55-2.63,0-3-3.36-3-5.18,0-3.72.88-9.26,8.75-19.8,5-6.53,11-13,24.82-27.87,1.19-1.19,2.29-2.46,3.38-3.73A3.32,3.32,0,0,0,104.28,7c0-.28,0-.64-.66-.64-.22,0-.33,0-.44.09a27.14,27.14,0,0,0-3.49,2.64c-5.14,4.35-7.1,6-21.54,21.25-3,3.08-5.79,6.26-8.74,9.34C56.51,53.4,45.46,65.3,26.67,65.3,24.16,65.3,12,64.84,4.92,59A13.32,13.32,0,0,1,0,49C0,40.6,9,35.79,11.69,34.69a30.19,30.19,0,0,1,11.49-2.18c10.91,0,19.45,5.27,19.45,11.36,0,4.25-5,11-16.72,11-6.67,0-9.3-2.27-9.3-4.26a1.7,1.7,0,0,1,1.54-1.73c.43,0,.87.26.87.55,0,.08-.1.27-.44.63s-.65.55-.65,1a1.83,1.83,0,0,0,.87,1.44c.66.46,2,1.36,6.67,1.36C38,53.85,41.65,47,41.65,44c0-3.72-4.92-8.62-14.32-8.62A36.11,36.11,0,0,0,14,38.23C4.92,42.05,2.41,48,2.41,51.31,2.41,58.39,11.27,63,20.88,63a42.44,42.44,0,0,0,16.61-3.71c9-3.82,15.42-9,20.66-13.45a239.33,239.33,0,0,0,18-16.53C88.53,17.17,91.82,14,96.4,10.26c5.25-4.45,6.78-5.17,8.1-5.17,1.52,0,2.18.9,2.18,2.36,0,1.82-1.31,5.08-2.18,7.08-3.62,8.27-10.5,16.72-15.64,23-3,3.54-6,7.18-9,10.8-2.52,3.1-10.49,13-10.49,15.08,0,.18,0,.64.66.64a2,2,0,0,0,.76-.18,22.73,22.73,0,0,0,2.61-2.73c6.35-7,6.69-7.35,16.41-19.07,8.31-10,17.82-21.43,31.26-30.42C133.79,3.28,146.8,0,153.24,0c4.38,0,4.49,1.11,4.49,1.82,0,1.36-2,2.46-3.07,2.46a2.46,2.46,0,0,1-1.42-.46,8.85,8.85,0,0,1-1.08-1,3.82,3.82,0,0,0-2.63-.9c-1,0-7.86.81-16.73,8.34-7,5.73-13.33,14-16.62,18.62a197.13,197.13,0,0,0-13.86,22c-1.33,2.55-3.18,6.27-3.18,9.72,0,2.55,1.31,4.27,3.28,4.27,4.15,0,8.64-5.8,10.38-8.72.77-1.36,1-1.82,1.64-1.82a.6.6,0,0,1,.66.64c0,.91-3.5,4.72-4.49,5.82-3.28,3.36-5.79,5-8.29,5a8.2,8.2,0,0,1-4.94-1.82c-2.4-2-3.92-6.09-3.92-9.53,0-11.17,13-26.52,25.79-37,2.85-2.27,9.4-7.17,14-10.18,1.54-1,3.17-1.9,4.82-2.81-2.31.91-4.6,1.74-6.79,2.81M46.35,20.35A22.37,22.37,0,0,1,64.17,11c5.79,0,10.27,2.72,10.27,7.54,0,7.35-9.4,14.06-21,14.06a25.91,25.91,0,0,1-8.2-1.35,8,8,0,0,0,3,4.63,11.58,11.58,0,0,0,7.32,2.9A7.5,7.5,0,0,0,60,37.42c.57-.36,1-.91,1.65-.91a.68.68,0,0,1,.76.63c0,.82-3.61,2.45-6.78,2.45a13.41,13.41,0,0,1-8.19-3,12.28,12.28,0,0,1-3.94-6.17c-3.6-2.09-9.18-5.37-9.18-12.44,0-3.64,1.85-7.73,5.8-11C46.78,1.64,57.17.1,68.1.1c11.8,0,31.15,2.08,34.43,2.36a94.73,94.73,0,0,0,10.27.82c1.2,0,1.86-.1,2.3-1.19.33-.72.43-1,1.42-1,.65,0,2.4.44,2.4,1.35,0,.45-.77,1.27-2.4,1.72a12.16,12.16,0,0,1-3,.27c-1.1,0-2.19-.09-3.28-.17-3.28-.28-6.56-.73-9.73-1-5.58-.55-12.13-.92-18-.92C74.65,2.36,63.83,3,55,6.64,47.22,9.9,39.46,16.16,39.46,23.16c0,3.82,2.52,5.45,4,6.53a14.63,14.63,0,0,1,2.85-9.34m4.59,11.08c9.72,0,21-7.36,21-14.44,0-4.82-5.46-5.27-7.64-5.27a20.68,20.68,0,0,0-13,4.91,15.93,15.93,0,0,0-6.32,11.8c0,.62.1,1.26.1,1.91a16.35,16.35,0,0,0,5.91,1.09"/><path class="cls-2" d="M259.19,41.05c0,4.45.13,6.39.76,7s1.47.68,4.18.68c1.84,0,3.38,0,4.21-.91a4,4,0,0,0,.91-1.81c0-.25.1-.4.31-.4s.2.12.2.46a16.71,16.71,0,0,1-.51,3c-.26.69-.35.82-2.19.82-5,0-7.31-.18-9.34-.18-.14,0-.72,0-1.42,0s-1.46.05-2,.05c-.38,0-.55-.05-.55-.25s.07-.17.28-.17a6.16,6.16,0,0,0,1-.13c.69-.13.87-.79,1-1.67a65.48,65.48,0,0,0,.17-6.57V35.65c0-4.73,0-5.57-.07-6.55s-.34-1.52-1.49-1.73a7.53,7.53,0,0,0-1.18-.09c-.14,0-.27-.06-.27-.19s.16-.24.55-.24c1.56,0,3.75.1,3.92.1s2.71-.1,3.77-.1c.37,0,.55.07.55.24s-.14.19-.27.19a9.7,9.7,0,0,0-1.16.09c-1,.15-1.29.67-1.36,1.73s-.06,1.82-.06,6.55Z"/><path class="cls-2" d="M160.37,45.87c.14,1.09.37,2.79,1.88,3.19a7.75,7.75,0,0,0,2.25.3c.18,0,.29,0,.29.14s-.32.28-.75.28c-.76,0-4.51-.09-5.8-.18-.8-.07-1-.16-1-.31s.07-.19.24-.23.21-.52.14-1.06L156,32.34h-.1l-8.52,15.78c-.73,1.32-.84,1.61-1.15,1.61s-.41-.31-1.07-1.41c-.92-1.48-3.91-6.73-4.08-7-.32-.56-4.22-7.82-4.59-8.64h-.14l-1.39,14.07c0,.47,0,1,0,1.54a1,1,0,0,0,.89.94,7.74,7.74,0,0,0,1.33.16c.14,0,.28.06.28.14s-.21.28-.63.28c-1.29,0-3-.09-3.24-.09s-2,.09-2.92.09c-.35,0-.59-.05-.59-.28s.16-.14.34-.14a4.74,4.74,0,0,0,1-.1c1.15-.2,1.25-1.36,1.38-2.51L135.31,27c.06-.34.17-.55.38-.55s.34.12.52.46L146.86,46l10.24-19c.13-.28.27-.49.51-.49s.36.24.43.82Z"/><path class="cls-2" d="M177,26.43c7.83,0,13.67,4.31,13.67,11.37,0,6.8-5.5,12.4-13.88,12.4-9.54,0-13.51-6.45-13.51-11.92,0-4.9,4.1-11.85,13.72-11.85m.73,22.62c3.13,0,9.59-1.57,9.59-10.4,0-7.28-5.07-11.2-10.57-11.2-5.82,0-10.16,3.35-10.16,10,0,7.06,4.87,11.61,11.14,11.61"/><path class="cls-2" d="M192.73,35.65c0-4.73,0-5.57-.07-6.55s-.34-1.51-1.49-1.73a7.81,7.81,0,0,0-1.18-.09c-.15,0-.29-.06-.29-.19s.18-.24.55-.24c1.57,0,3.76.1,3.94.1.38,0,3-.1,4.11-.1a12,12,0,0,1,6.37,1.34,5.16,5.16,0,0,1,2.4,4.12c0,2.25-1.08,4.49-4.22,7,2.86,3.19,5.23,5.87,7.25,7.76a7.57,7.57,0,0,0,4.24,2.18,8.69,8.69,0,0,0,1.35.1c.18,0,.32.08.32.17s-.21.25-.84.25h-2.46A8,8,0,0,1,209,49.2c-1.51-.69-2.72-2.19-4.71-4.45-1.46-1.67-3.1-3.7-3.8-4.5a.61.61,0,0,0-.44-.18l-4.28,0c-.18,0-.25.08-.25.23V41a65.48,65.48,0,0,0,.17,6.57c.11.88.32,1.54,1.36,1.67.49.06,1.26.13,1.57.13s.27.08.27.17-.16.25-.55.25c-1.91,0-4.1-.09-4.28-.09s-2.23.09-3.27.09c-.38,0-.56-.05-.56-.25s.07-.17.28-.17a6.28,6.28,0,0,0,1.05-.13c.69-.13.86-.79,1-1.67a61.86,61.86,0,0,0,.18-6.57Zm2.78,2.63a.4.4,0,0,0,.25.37,11,11,0,0,0,3.65.48,5,5,0,0,0,2.61-.57c1.21-.73,2.12-2.35,2.12-4.67,0-3.79-2.3-6.06-6-6.06a10.44,10.44,0,0,0-2.33.19.35.35,0,0,0-.28.35Z"/><path class="cls-2" d="M222.25,41a65.37,65.37,0,0,0,.17,6.57c.11.87.32,1.54,1.37,1.67.47.06,1.24.13,1.55.13s.28.08.28.17-.16.25-.55.25c-1.91,0-4.1-.09-4.28-.09s-2.38.09-3.41.09c-.39,0-.56-.05-.56-.25s.07-.17.27-.17a6.28,6.28,0,0,0,1-.13c.69-.13.87-.8,1-1.67a65.37,65.37,0,0,0,.17-6.57V35.65c0-4.73,0-5.57-.07-6.55s-.42-1.54-1.17-1.7a5.29,5.29,0,0,0-1.09-.12c-.13,0-.26-.06-.26-.19s.16-.24.54-.24c1.14,0,3.34.1,3.52.1s2.37-.1,3.4-.1c.39,0,.56.07.56.24s-.13.19-.27.19a6.29,6.29,0,0,0-.88.09c-.93.15-1.21.67-1.28,1.73s-.07,1.82-.07,6.55Z"/><path class="cls-2" d="M238.58,27.61c.42-1,.55-1.18.76-1.18s.35.15.76,1.09c.51,1.15,6,13.67,8.11,18.29,1.25,2.69,2.27,3.19,3,3.36a5.3,5.3,0,0,0,1.39.19c.21,0,.36,0,.36.17s-.32.25-.7.25-3.07,0-5.47-.05c-.66,0-1.05,0-1.05-.23s.1-.18.24-.21.43-.32.22-.81L243,41a.3.3,0,0,0-.3-.19h-7.5a.36.36,0,0,0-.34.25l-2.1,5.36a5.72,5.72,0,0,0-.48,2c0,.58.74.88,1.33.88h.34c.25,0,.36.06.36.17s-.22.25-.52.25c-.84,0-2.35-.09-2.73-.09s-2.29.09-3.93.09c-.45,0-.65-.05-.65-.25s.13-.17.3-.17.73,0,1-.07c1.6-.19,2.28-1.33,2.91-2.85Zm3.6,12.12c.18,0,.18-.07.14-.21L239,31.34c-.17-.46-.34-.46-.52,0l-3.06,8.18c-.07.16,0,.21.1.21Z"/><path class="cls-2" d="M116.8,35.65c0-4.73,0-5.57-.07-6.55s-.35-1.51-1.49-1.73a7.56,7.56,0,0,0-1.19-.09c-.13,0-.27-.06-.27-.19s.16-.24.56-.24c1.56,0,3.75.1,3.92.1s7.18,0,8,0a10.63,10.63,0,0,0,1.49-.15c.18,0,.32-.17.49-.17s.13.14.13.29-.16.56-.28,1.42c0,.31-.09,1.64-.16,2,0,.16-.11.33-.24.33s-.28-.14-.28-.39a2.79,2.79,0,0,0-.22-1.09c-.23-.49-.59-.85-2.46-1-.6-.06-4.39-.09-4.78-.09-.13,0-.2.09-.2.3v8.38c0,.21,0,.3.2.3.45,0,4.73,0,5.53-.07s1.33-.12,1.64-.43.39-.39.53-.39.17.08.17.24-.17.7-.28,1.71c-.07.6-.13,1.72-.13,1.94s0,.56-.25.56-.24-.11-.24-.26a2.56,2.56,0,0,0-.15-1c-.14-.42-.44-1-1.81-1.07-.93-.08-4.38-.14-5-.14-.17,0-.24.08-.24.2V41c0,1,0,4.54,0,5.18.1,2.09.63,2.49,4,2.49a11.14,11.14,0,0,0,3.34-.34c.91-.32,1.33-.94,1.57-2.18.07-.33.15-.46.31-.46s.22.25.22.46a26.51,26.51,0,0,1-.46,2.92c-.24.81-.52.81-1.88.81-5.25,0-7.58-.18-8.6-.18-.06,0-.66,0-1.38,0s-1.5.05-2,.05c-.38,0-.55-.05-.55-.25s.07-.17.28-.17a6.43,6.43,0,0,0,1-.13c.7-.13.87-.79,1-1.67.16-1.26.16-3.66.16-6.57Z"/></g></g></svg>