<svg xmlns="http://www.w3.org/2000/svg" viewBox="0 0 307.72 66.84"><defs><style>.cls-1,.cls-3,.cls-4,.cls-5,.cls-6,.cls-7{fill:#73a8a8;}.cls-1,.cls-12{opacity:0.7;}.cls-10,.cls-11,.cls-12,.cls-13,.cls-2,.cls-8,.cls-9{fill:#001b2c;}.cls-3,.cls-8{opacity:0.2;}.cls-4,.cls-9{opacity:0.6;}.cls-10,.cls-5{opacity:0.4;}.cls-11,.cls-6{opacity:0.5;}.cls-13,.cls-7{opacity:0.3;}</style></defs><title>logo-progresus</title><g id="Capa_2" data-name="Capa 2"><g id="Capa_1-2" data-name="Capa 1"><path class="cls-1" d="M81.15,33.81c0-2.17,0-4-.18-6.11a50.6,50.6,0,0,1,7.78-.59c7.15,0,12.08,2.35,12.08,9.37a9.1,9.1,0,0,1-8.6,9.14A6.39,6.39,0,0,1,90,45.3a4.06,4.06,0,0,1-1.67-3.44c.23,0,.72,0,1.09,0,2.22,0,4.75-1.13,4.75-5.52,0-3.8-2.4-5.29-5-5.29a9.12,9.12,0,0,0-1.49.09V50.23c0,3.17.09,4.43.14,5.34a39,39,0,0,1-5.52.36c-.77,0-1.09-.14-1.09-.81Z"/><path class="cls-1" d="M111.06,54.58c0,.91-.32,1.09-1.09,1.18-1.31.14-4.3.18-5.34.18.09-1.81.14-4.48.14-8.28V32.45c0-2.22,0-3.3-.09-4.52a60.83,60.83,0,0,1,8.19-.81c7.78,0,11.22,2.67,11.22,8.24,0,4.21-3.53,6.24-5.34,7.1,1,.91,2.4,3.3,3.85,5.88a38.67,38.67,0,0,0,4.57,7v.18a12.19,12.19,0,0,1-4.12.5,4.69,4.69,0,0,1-4.3-1.9c-1-1.27-2-3.35-3.94-7.19-1.22-2.44-2.13-2.63-3.12-2.63a3,3,0,0,0-.63,0Zm0-13.94a11.53,11.53,0,0,0,4.07-.32,4.65,4.65,0,0,0,2.35-4.39c0-3.44-2.08-5.07-4.8-5.07a9.34,9.34,0,0,0-1.63.09Z"/><path class="cls-1" d="M143.33,26.7c9.41,0,14.53,6.65,14.53,14.57,0,8.19-5.16,15.07-14.75,15.07-10.45,0-14.62-7.51-14.62-14.62,0-8.55,5.48-15,14.8-15Zm-.59,4c-3.89,0-7.33,3.17-7.33,10.41s3.67,11.27,8.19,11.27c4.75,0,7.42-4,7.42-10.59,0-6.15-2.85-11.09-8.24-11.09Z"/><path class="cls-1" d="M180.7,45.75c0-1.54-.14-2.4-.18-3.48,1.72-.23,4.16-.68,5.57-.68.77,0,1.09.27,1.09,1.22V52.95a21.08,21.08,0,0,1-3.8,2.44,23.23,23.23,0,0,1-6.25,1c-7.38,0-15.61-3.17-15.61-14.62,0-9.37,7.24-15,16.16-15,4.84,0,8.28,1.49,9.5,2.67,0,2-1.4,3.48-3,3.21a16.74,16.74,0,0,0-6.52-1.36c-5.16,0-9.23,3.21-9.23,10.14,0,7.38,4.89,11,9.82,11A8.94,8.94,0,0,0,180.7,52Z"/><path class="cls-2" d="M198.94,54.58c0,.91-.32,1.09-1.08,1.18-1.31.14-4.3.18-5.34.18.09-1.81.14-4.48.14-8.28V32.45c0-2.22,0-3.3-.09-4.52a60.87,60.87,0,0,1,8.19-.81c7.78,0,11.22,2.67,11.22,8.24,0,4.21-3.53,6.24-5.34,7.1,1,.91,2.4,3.3,3.85,5.88a38.64,38.64,0,0,0,4.57,7v.18a12.2,12.2,0,0,1-4.12.5,4.69,4.69,0,0,1-4.3-1.9c-1-1.27-2-3.35-3.94-7.19-1.22-2.44-2.13-2.63-3.12-2.63a3,3,0,0,0-.63,0Zm0-13.94a11.52,11.52,0,0,0,4.07-.32,4.65,4.65,0,0,0,2.35-4.39c0-3.44-2.08-5.07-4.8-5.07a9.33,9.33,0,0,0-1.63.09Z"/><path class="cls-2" d="M218.12,33.71c0-2.17,0-3.71-.14-5.7a33.78,33.78,0,0,1,5.88-.63h10.77c-.32,2.49-1,3.35-1.49,4a19.13,19.13,0,0,1-4.57.27h-4V39h9.55c-.45,3.48-1.45,4.25-3.08,4.25h-6.47v8.19a19.94,19.94,0,0,0,3.62.27c1.72,0,5.25,0,7.6-.18l.09.09a5.63,5.63,0,0,1-2.58,4.12,50.83,50.83,0,0,1-6.47.23,50.15,50.15,0,0,1-8-.45l-.72-.91Z"/><path class="cls-2" d="M248.89,26.7c2.58,0,5.7,1.09,6.83,2.26,0,1.27-.81,3.39-2.62,3.26a12,12,0,0,0-4.39-1.09c-2.4,0-3.76,1.09-3.76,2.67,0,1.85,1.4,2.9,5.7,5.34,3.8,2.13,6.29,3.85,6.29,8.28,0,5.84-5.11,8.91-10.54,8.91a12,12,0,0,1-6.74-1.76c-.9-.59-1.22-1.08-1.22-1.72a6.23,6.23,0,0,1,1.27-3.26,14.08,14.08,0,0,0,6.56,2.13c2.49,0,4.25-1,4.25-3,0-1.63-.77-2.67-5.39-5.2-5.25-2.81-6.24-5.75-6.24-8.55,0-3.21,2.26-8.24,10-8.24Z"/><path class="cls-2" d="M267.44,42.45c0,8,3.21,9.28,6.2,9.28,3.44,0,6.11-1.63,6.11-9.59V28.56c0-.91.36-1.09,1-1.18,1.36-.14,3.71-.18,4.62-.18-.09,1.81-.14,4.48-.14,8.24V41.9c0,12.44-6.61,14.44-12.35,14.44-8.06,0-11.95-4.25-11.95-13.62V33.4c0-3,0-4.89-.14-5.84.9-.14,4.52-.36,5.57-.36s1,.5,1,2.71Z"/><path class="cls-2" d="M299.66,26.7c2.58,0,5.7,1.09,6.83,2.26,0,1.27-.82,3.39-2.62,3.26a12,12,0,0,0-4.39-1.09c-2.4,0-3.76,1.09-3.76,2.67,0,1.85,1.4,2.9,5.7,5.34,3.8,2.13,6.29,3.85,6.29,8.28,0,5.84-5.11,8.91-10.54,8.91a12,12,0,0,1-6.74-1.76c-.9-.59-1.22-1.08-1.22-1.72a6.22,6.22,0,0,1,1.27-3.26A14.07,14.07,0,0,0,297,51.73c2.49,0,4.25-1,4.25-3,0-1.63-.77-2.67-5.38-5.2-5.25-2.81-6.25-5.75-6.25-8.55,0-3.21,2.26-8.24,10-8.24Z"/><path class="cls-3" d="M40.5,50.71,34.79,66.84A25.66,25.66,0,0,1,25.9,17.76h0a18.76,18.76,0,0,0,14.6,33Z"/><path class="cls-4" d="M26.33,16.12,32,0a25.66,25.66,0,0,1,8.88,49.08h0a18.76,18.76,0,0,0-14.6-33Z"/><path class="cls-5" d="M26.2,50.66,10.76,58A25.66,25.66,0,0,1,39.18,17h0a18.76,18.76,0,0,0-13,33.62Z"/><path class="cls-6" d="M40.64,16.18,56.08,8.82a25.66,25.66,0,0,1-28.42,41h0a18.76,18.76,0,0,0,13-33.62Z"/><path class="cls-6" d="M16.12,40.5,0,34.79A25.66,25.66,0,0,1,49.08,25.9h0a18.76,18.76,0,0,0-33,14.6Z"/><path class="cls-5" d="M50.71,26.34l16.12,5.71a25.66,25.66,0,0,1-49.08,8.88h0a18.76,18.76,0,0,0,33-14.6Z"/><path class="cls-1" d="M16.18,26.2,8.82,10.76a25.66,25.66,0,0,1,41,28.42h0a18.76,18.76,0,0,0-33.63-13Z"/><path class="cls-7" d="M50.66,40.64,58,56.08A25.66,25.66,0,0,1,17,27.66h0a18.76,18.76,0,0,0,33.62,13Z"/><path class="cls-8" d="M36.25,40.34,34,46.79a10.27,10.27,0,0,1-3.55-19.64h0a7.51,7.51,0,0,0,5.84,13.19Z"/><path class="cls-9" d="M30.58,26.5,32.87,20a10.27,10.27,0,0,1,3.56,19.64h0A7.51,7.51,0,0,0,30.58,26.5Z"/><path class="cls-10" d="M30.53,40.32l-6.18,2.95a10.27,10.27,0,0,1,11.37-16.4h0a7.51,7.51,0,0,0-5.19,13.46Z"/><path class="cls-11" d="M36.31,26.52l6.18-2.95A10.27,10.27,0,0,1,31.11,40h0a7.51,7.51,0,0,0,5.19-13.46Z"/><path class="cls-11" d="M26.5,36.25,20,34a10.27,10.27,0,0,1,19.64-3.55h0A7.51,7.51,0,0,0,26.5,36.25Z"/><path class="cls-10" d="M40.34,30.58l6.45,2.29a10.27,10.27,0,0,1-19.64,3.56h0a7.51,7.51,0,0,0,13.19-5.84Z"/><path class="cls-12" d="M26.52,30.53l-2.94-6.18A10.27,10.27,0,0,1,40,35.72h0a7.51,7.51,0,0,0-13.46-5.19Z"/><path class="cls-13" d="M40.32,36.31l2.95,6.18a10.27,10.27,0,0,1-16.4-11.38h0a7.51,7.51,0,0,0,13.46,5.19Z"/></g></g></svg>