<?xml version="1.0" encoding="utf-8"?>
<!-- Generator: Adobe Illustrator 21.1.0, SVG Export Plug-In . SVG Version: 6.00 Build 0)  -->
<svg version="1.1" id="Capa_1" xmlns="http://www.w3.org/2000/svg" xmlns:xlink="http://www.w3.org/1999/xlink" x="0px" y="0px"
	 viewBox="0 0 1136.6 246.9" style="enable-background:new 0 0 1136.6 246.9;" xml:space="preserve">
<style type="text/css">
	.st0{opacity:0.7;fill:#73A8A8;enable-background:new    ;}
	.st1{fill:#001B2C;}
	.st2{opacity:0.2;fill:#73A8A8;enable-background:new    ;}
	.st3{opacity:0.6;fill:#73A8A8;enable-background:new    ;}
	.st4{opacity:0.4;fill:#73A8A8;enable-background:new    ;}
	.st5{opacity:0.5;fill:#73A8A8;enable-background:new    ;}
	.st6{opacity:0.3;fill:#73A8A8;enable-background:new    ;}
	.st7{opacity:0.2;fill:#001B2C;enable-background:new    ;}
	.st8{opacity:0.6;fill:#001B2C;enable-background:new    ;}
	.st9{opacity:0.4;fill:#001B2C;enable-background:new    ;}
	.st10{opacity:0.5;fill:#001B2C;enable-background:new    ;}
	.st11{opacity:0.7;fill:#001B2C;enable-background:new    ;}
	.st12{opacity:0.3;fill:#001B2C;enable-background:new    ;}
</style>
<title>logo-ikonosoft</title>
<g id="Capa_2">
	<g id="Capa_1-2">
		<path class="st0" d="M299.7,124.9c0-8,0-14.8-0.7-22.6c9.5-1.5,19.1-2.2,28.7-2.2c26.4,0,44.6,8.7,44.6,34.6
			c0.1,17.9-13.9,32.8-31.8,33.8c-2.8,0.1-5.6-0.3-8.2-1.2c-4-2.9-6.4-7.7-6.2-12.7c0.8,0,2.7,0,4,0c8.2,0,17.5-4.2,17.5-20.4
			c0-14-8.9-19.5-18.5-19.5c-1.8,0-3.7,0.1-5.5,0.3v70.5c0,11.7,0.3,16.4,0.5,19.7c-6.8,0.9-13.6,1.4-20.4,1.3c-2.8,0-4-0.5-4-3
			L299.7,124.9z"/>
		<path class="st0" d="M410.2,201.6c0,3.4-1.2,4-4,4.4c-4.8,0.5-15.9,0.7-19.7,0.7c0.3-6.7,0.5-16.5,0.5-30.6v-56.2
			c0-8.2,0-12.2-0.3-16.7c10-1.7,20.1-2.7,30.3-3c28.7,0,41.4,9.9,41.4,30.4c0,15.6-13,23-19.7,26.2c3.7,3.4,8.9,12.2,14.2,21.7
			c4.7,9.2,10.3,17.9,16.9,25.9v0.7c-4.9,1.5-10.1,2.1-15.2,1.8c-6.2,0.7-12.2-2-15.9-7c-3.7-4.7-7.4-12.4-14.6-26.6
			c-4.5-9-7.9-9.7-11.5-9.7c-0.8-0.1-1.6-0.1-2.3,0L410.2,201.6z M410.2,150.1c5,0.5,10.1,0.1,15-1.2c5.8-3.3,9.2-9.6,8.7-16.2
			c0-12.7-7.7-18.7-17.7-18.7c-2-0.1-4,0-6,0.3L410.2,150.1z"/>
		<path class="st0" d="M529.4,98.6c34.8,0,53.7,24.6,53.7,53.8c0,30.3-19.1,55.7-54.5,55.7c-38.6,0-54-27.7-54-54
			c0-31.6,20.2-55.4,54.7-55.4L529.4,98.6z M527.2,113.4c-14.4,0-27.1,11.7-27.1,38.5s13.6,41.6,30.3,41.6
			c17.5,0,27.4-14.8,27.4-39.1c0-22.7-10.5-41-30.4-41H527.2z"/>
		<path class="st0" d="M667.4,169c0-5.7-0.5-8.9-0.7-12.9c6.4-0.8,15.4-2.5,20.6-2.5c2.8,0,4,1,4,4.5v37.5c-4.3,3.5-9,6.5-14,9
			c-7.5,2.3-15.3,3.5-23.1,3.7c-27.3,0-57.7-11.7-57.7-54c0-34.6,26.7-55.4,59.7-55.4c17.9,0,30.6,5.5,35.1,9.9
			c0,7.4-5.2,12.9-11.1,11.9c-7.6-3.3-15.8-5-24.1-5c-19.1,0-34.1,11.9-34.1,37.5c0,27.3,18.1,40.6,36.3,40.6c3.1-0.1,6.1-0.6,9-1.6
			V169z"/>
		<path class="st1" d="M734.8,201.6c0,3.4-1.2,4-4,4.4c-4.8,0.5-15.9,0.7-19.7,0.7c0.3-6.7,0.5-16.5,0.5-30.6v-56.2
			c0-8.2,0-12.2-0.3-16.7c10-1.7,20.1-2.7,30.3-3c28.7,0,41.4,9.9,41.4,30.4c0,15.6-13,23-19.7,26.2c3.7,3.4,8.9,12.2,14.2,21.7
			c4.7,9.2,10.3,17.9,16.9,25.9v0.7c-4.9,1.5-10.1,2.1-15.2,1.8c-6.2,0.7-12.2-2-15.9-7c-3.7-4.7-7.4-12.4-14.6-26.6
			c-4.5-9-7.9-9.7-11.5-9.7c-0.8-0.1-1.6-0.1-2.3,0L734.8,201.6z M734.8,150.1c5,0.5,10.1,0.1,15-1.2c5.8-3.3,9.2-9.6,8.7-16.2
			c0-12.7-7.7-18.7-17.7-18.7c-2-0.1-4,0-6,0.3L734.8,150.1z"/>
		<path class="st1" d="M805.7,124.5c0-8,0-13.7-0.5-21.1c7.2-1.4,14.4-2.2,21.7-2.3h39.8c-1.2,9.2-3.7,12.4-5.5,14.8
			c-5.6,1-11.2,1.3-16.9,1h-14.8v27.1h35.3c-1.7,12.9-5.4,15.7-11.4,15.7h-23.9V190c4.4,0.7,8.9,1.1,13.4,1c6.4,0,19.4,0,28.1-0.7
			l0.3,0.3c-0.7,6.3-4.2,11.8-9.5,15.2c-7.9,0.8-15.9,1.1-23.9,0.8c-9.9,0.2-19.8-0.3-29.5-1.7l-2.7-3.4L805.7,124.5z"/>
		<path class="st1" d="M919.3,98.6c9.5,0,21.1,4,25.2,8.3c0,4.7-3,12.5-9.7,12c-5.1-2.4-10.6-3.7-16.2-4c-8.9,0-13.9,4-13.9,9.9
			c0,6.8,5.2,10.7,21.1,19.7c14,7.9,23.2,14.2,23.2,30.6c0,21.6-18.9,32.9-38.9,32.9c-8.8,0.3-17.4-1.9-24.9-6.5
			c-3.3-2.2-4.5-4-4.5-6.4c0.4-4.4,2-8.6,4.7-12c7.3,4.6,15.6,7.3,24.2,7.9c9.2,0,15.7-3.7,15.7-11.1c0-6-2.8-9.9-19.9-19.2
			c-19.4-10.4-23-21.2-23-31.6c0-11.9,8.3-30.4,36.9-30.4V98.6z"/>
		<path class="st1" d="M987.8,156.8c0,29.5,11.9,34.3,22.9,34.3c12.7,0,22.6-6,22.6-35.4v-50.2c0-3.4,1.3-4,3.7-4.4
			c5-0.5,13.7-0.7,17.1-0.7c-0.3,6.7-0.5,16.5-0.5,30.4v23.9c0,45.9-24.4,53.3-45.6,53.3c-29.8,0-44.1-15.7-44.1-50.3v-34.4
			c0-11.1,0-18.1-0.5-21.6c3.3-0.5,16.7-1.3,20.6-1.3c3.9,0,3.7,1.8,3.7,10L987.8,156.8z"/>
		<path class="st1" d="M1106.8,98.6c9.5,0,21.1,4,25.2,8.3c0,4.7-3,12.5-9.7,12c-5.1-2.4-10.6-3.7-16.2-4c-8.9,0-13.9,4-13.9,9.9
			c0,6.8,5.2,10.7,21.1,19.7c14,7.9,23.2,14.2,23.2,30.6c0,21.6-18.9,32.9-38.9,32.9c-8.8,0.3-17.4-1.9-24.9-6.5
			c-3.3-2.2-4.5-4-4.5-6.4c0.4-4.4,2-8.6,4.7-12c7.3,4.6,15.5,7.3,24.1,7.9c9.2,0,15.7-3.7,15.7-11.1c0-6-2.8-9.9-19.9-19.2
			c-19.4-10.4-23.1-21.2-23.1-31.6c0-11.9,8.3-30.4,36.9-30.4L1106.8,98.6z"/>
		<path class="st2" d="M149.6,187.3l-21.1,59.6c-52.3-3.1-92.1-47.9-89.1-100.1c2.1-35.4,23.8-66.8,56.3-81.1l0,0
			c-29.4,24.5-33.4,68.2-8.9,97.6c15.3,18.4,39.1,27.6,62.9,24.3V187.3z"/>
		<path class="st3" d="M97.3,59.5L118.2,0c52.3,3.1,92.1,47.9,89.1,100.2c-2.1,35.4-23.8,66.7-56.3,81.1l0,0
			c29.4-24.5,33.4-68.2,8.9-97.6c-15.3-18.4-39.1-27.6-62.9-24.3L97.3,59.5z"/>
		<path class="st4" d="M96.8,187.1l-57,27.1c-34.8-39.1-31.4-99,7.7-133.8C74,56.8,111.6,50,144.7,62.8l0,0
			c-38.1-3.4-71.7,24.8-75.1,63c-2.1,23.7,8.1,46.8,27.1,61.2L96.8,187.1z"/>
		<path class="st5" d="M150.1,59.8l57-27.2c34.8,39.1,31.4,99-7.7,133.8c-26.5,23.7-64.1,30.5-97.3,17.6l0,0
			c38.1,3.4,71.7-24.8,75.1-63C179.3,97.4,169.1,74.2,150.1,59.8L150.1,59.8z"/>
		<path class="st5" d="M59.5,149.6L0,128.5c3.1-52.3,47.9-92.1,100.1-89.1c35.4,2.1,66.8,23.8,81.1,56.3l0,0
			c-24.5-29.4-68.2-33.4-97.6-8.9c-18.4,15.3-27.6,39.1-24.3,62.9H59.5z"/>
		<path class="st4" d="M187.3,97.3l59.5,21.1c-3.1,52.3-47.9,92.1-100.2,89.1c-35.4-2.1-66.7-23.8-81.1-56.3l0,0
			c24.5,29.4,68.2,33.4,97.6,8.9c18.4-15.3,27.6-39.1,24.3-62.9L187.3,97.3z"/>
		<path class="st0" d="M59.8,96.8l-27.2-57c39.1-34.8,99-31.4,133.8,7.7C190,74,196.9,111.6,184,144.7l0,0
			c3.4-38.1-24.8-71.8-62.9-75.1C97.4,67.5,74.2,77.7,59.8,96.8L59.8,96.8z"/>
		<path class="st6" d="M187.1,150.1l27.1,57c-39.1,34.8-99,31.4-133.8-7.7c-23.7-26.5-30.5-64.1-17.6-97.3l0,0
			c-3.4,38.1,24.8,71.7,63,75.1c23.7,2.1,46.8-8.1,61.2-27.1L187.1,150.1z"/>
		<path class="st7" d="M133.9,149l-8.3,23.8c-20.9-1.3-36.9-19.2-35.6-40.1c0.8-14.2,9.5-26.7,22.5-32.4l0,0
			c-11.7,9.9-13.2,27.4-3.4,39.1c6.1,7.3,15.5,10.9,24.9,9.6H133.9z"/>
		<path class="st8" d="M113,97.9l8.5-24c20.9,1.2,36.9,19.2,35.6,40.1c-0.8,14.2-9.5,26.7-22.5,32.4l0,0c11.6-10,12.9-27.5,2.9-39.1
			C131.4,100.2,122.2,96.7,113,97.9z"/>
		<path class="st9" d="M112.8,148.9l-22.8,10.9c-13.9-15.7-12.5-39.6,3.2-53.6c10.6-9.4,25.6-12.1,38.8-7l0,0
			c-15.3-1.3-28.7,10-30,25.3C101.1,134,105.2,143.2,112.8,148.9L112.8,148.9z"/>
		<path class="st10" d="M134.1,98l22.8-10.9c14,15.6,12.7,39.6-2.8,53.6c-10.7,9.6-25.8,12.3-39.2,7.1l0,0c15.3,1.3,28.7-10,30-25.3
			C145.7,113,141.6,103.8,134.1,98L134.1,98z"/>
		<path class="st10" d="M97.9,133.9l-24-8.3C75.1,104.7,93.1,88.7,114,90c14.2,0.8,26.7,9.5,32.4,22.5l0,0
			c-10-11.6-27.5-12.9-39.1-2.9C100.3,115.6,96.8,124.7,97.9,133.9z"/>
		<path class="st9" d="M149,113l23.8,8.5c-1.2,20.9-19.2,36.9-40.1,35.6c-14.2-0.8-26.7-9.5-32.4-22.5l0,0
			c9.9,11.7,27.4,13.2,39.1,3.4C146.6,131.8,150.3,122.4,149,113L149,113z"/>
		<path class="st11" d="M98,112.8L87.1,89.9c15.6-14,39.6-12.6,53.6,3c9.5,10.6,12.2,25.7,7.1,39l0,0c1.3-15.3-10-28.7-25.3-30
			C113,101.1,103.8,105.2,98,112.8L98,112.8z"/>
		<path class="st12" d="M148.9,134.1l10.9,22.8c-15.7,13.9-39.6,12.5-53.6-3.2c-9.4-10.6-12.1-25.6-7-38.9l0,0
			c-1.3,15.3,10,28.7,25.3,30C134,145.7,143.2,141.6,148.9,134.1L148.9,134.1z"/>
	</g>
</g>
</svg>
