<svg xmlns="http://www.w3.org/2000/svg" viewBox="0 0 66.84 66.84"><defs><style>.cls-1,.cls-2,.cls-3,.cls-4,.cls-5,.cls-6{fill:#73a8a8;}.cls-1,.cls-7{opacity:0.2;}.cls-2,.cls-8{opacity:0.6;}.cls-3,.cls-9{opacity:0.4;}.cls-10,.cls-4{opacity:0.5;}.cls-11,.cls-5{opacity:0.7;}.cls-12,.cls-6{opacity:0.3;}.cls-10,.cls-11,.cls-12,.cls-7,.cls-8,.cls-9{fill:#001b2c;}</style></defs><title>symbol-progresus</title><g id="Capa_2" data-name="Capa 2"><g id="Capa_1-2" data-name="Capa 1"><path class="cls-1" d="M40.5,50.71,34.79,66.84A25.66,25.66,0,0,1,25.9,17.76h0a18.76,18.76,0,0,0,14.6,33Z"/><path class="cls-2" d="M26.33,16.12,32,0a25.66,25.66,0,0,1,8.88,49.08h0a18.76,18.76,0,0,0-14.6-33Z"/><path class="cls-3" d="M26.2,50.66,10.76,58A25.66,25.66,0,0,1,39.18,17h0a18.76,18.76,0,0,0-13,33.62Z"/><path class="cls-4" d="M40.64,16.18,56.08,8.82a25.66,25.66,0,0,1-28.42,41h0a18.76,18.76,0,0,0,13-33.62Z"/><path class="cls-4" d="M16.12,40.5,0,34.79A25.66,25.66,0,0,1,49.08,25.9h0a18.76,18.76,0,0,0-33,14.6Z"/><path class="cls-3" d="M50.71,26.34l16.12,5.71a25.66,25.66,0,0,1-49.08,8.88h0a18.76,18.76,0,0,0,33-14.6Z"/><path class="cls-5" d="M16.18,26.2,8.82,10.76a25.66,25.66,0,0,1,41,28.42h0a18.76,18.76,0,0,0-33.63-13Z"/><path class="cls-6" d="M50.66,40.64,58,56.08A25.66,25.66,0,0,1,17,27.66h0a18.76,18.76,0,0,0,33.62,13Z"/><path class="cls-7" d="M36.25,40.34,34,46.79a10.27,10.27,0,0,1-3.55-19.64h0a7.51,7.51,0,0,0,5.84,13.19Z"/><path class="cls-8" d="M30.58,26.5,32.87,20a10.27,10.27,0,0,1,3.56,19.64h0A7.51,7.51,0,0,0,30.58,26.5Z"/><path class="cls-9" d="M30.53,40.32l-6.18,2.95a10.27,10.27,0,0,1,11.37-16.4h0a7.51,7.51,0,0,0-5.19,13.46Z"/><path class="cls-10" d="M36.31,26.52l6.18-2.95A10.27,10.27,0,0,1,31.11,40h0a7.51,7.51,0,0,0,5.19-13.46Z"/><path class="cls-10" d="M26.5,36.25,20,34a10.27,10.27,0,0,1,19.64-3.55h0A7.51,7.51,0,0,0,26.5,36.25Z"/><path class="cls-9" d="M40.34,30.58l6.45,2.29a10.27,10.27,0,0,1-19.64,3.56h0a7.51,7.51,0,0,0,13.19-5.84Z"/><path class="cls-11" d="M26.52,30.53l-2.94-6.18A10.27,10.27,0,0,1,40,35.72h0a7.51,7.51,0,0,0-13.46-5.19Z"/><path class="cls-12" d="M40.32,36.31l2.95,6.18a10.27,10.27,0,0,1-16.4-11.38h0a7.51,7.51,0,0,0,13.46,5.19Z"/></g></g></svg>