<svg xmlns="http://www.w3.org/2000/svg" viewBox="0 0 226.74 29.64"><defs><style>.cls-1,.cls-2{fill:#fff;}.cls-1{opacity:0.7;}</style></defs><title>typo-progresus-light</title><g id="Capa_2" data-name="Capa 2"><g id="Capa_1-2" data-name="Capa 1"><path class="cls-1" d="M.18,7.11c0-2.17,0-4-.18-6.11A50.6,50.6,0,0,1,7.78.41c7.15,0,12.08,2.35,12.08,9.37a9.1,9.1,0,0,1-8.6,9.14A6.39,6.39,0,0,1,9,18.6a4.06,4.06,0,0,1-1.67-3.44c.23,0,.72,0,1.09,0,2.22,0,4.75-1.13,4.75-5.52,0-3.8-2.4-5.29-5-5.29a9.12,9.12,0,0,0-1.49.09V23.53c0,3.17.09,4.43.14,5.34a39,39,0,0,1-5.52.36c-.77,0-1.09-.14-1.09-.81Z"/><path class="cls-1" d="M30.09,27.88c0,.91-.32,1.09-1.09,1.18-1.31.14-4.3.18-5.34.18.09-1.81.14-4.48.14-8.28V5.75c0-2.22,0-3.3-.09-4.52A60.83,60.83,0,0,1,31.9.41c7.78,0,11.22,2.67,11.22,8.24,0,4.21-3.53,6.24-5.34,7.1,1,.91,2.4,3.3,3.85,5.88a38.67,38.67,0,0,0,4.57,7v.18a12.19,12.19,0,0,1-4.12.5,4.69,4.69,0,0,1-4.3-1.9c-1-1.27-2-3.35-3.94-7.19-1.22-2.44-2.13-2.63-3.12-2.63a3,3,0,0,0-.63,0Zm0-13.94a11.53,11.53,0,0,0,4.07-.32,4.65,4.65,0,0,0,2.35-4.39c0-3.44-2.08-5.07-4.8-5.07a9.34,9.34,0,0,0-1.63.09Z"/><path class="cls-1" d="M62.35,0c9.41,0,14.53,6.65,14.53,14.57,0,8.19-5.16,15.07-14.75,15.07-10.45,0-14.62-7.51-14.62-14.62,0-8.55,5.48-15,14.8-15Zm-.59,4c-3.89,0-7.33,3.17-7.33,10.41s3.67,11.27,8.19,11.27c4.75,0,7.42-4,7.42-10.59C70,8.92,67.2,4,61.81,4Z"/><path class="cls-1" d="M99.73,19.05c0-1.54-.14-2.4-.18-3.48,1.72-.23,4.16-.68,5.57-.68.77,0,1.09.27,1.09,1.22V26.25a21.08,21.08,0,0,1-3.8,2.44,23.23,23.23,0,0,1-6.25,1c-7.38,0-15.61-3.17-15.61-14.62,0-9.37,7.24-15,16.16-15,4.84,0,8.28,1.49,9.5,2.67,0,2-1.4,3.48-3,3.21a16.74,16.74,0,0,0-6.52-1.36c-5.16,0-9.23,3.21-9.23,10.14,0,7.38,4.89,11,9.82,11a8.94,8.94,0,0,0,2.49-.32Z"/><path class="cls-2" d="M118,27.88c0,.91-.32,1.09-1.08,1.18-1.31.14-4.3.18-5.34.18.09-1.81.14-4.48.14-8.28V5.75c0-2.22,0-3.3-.09-4.52a60.87,60.87,0,0,1,8.19-.81C127.56.41,131,3.08,131,8.64c0,4.21-3.53,6.24-5.34,7.1,1,.91,2.4,3.3,3.85,5.88a38.64,38.64,0,0,0,4.57,7v.18a12.2,12.2,0,0,1-4.12.5,4.69,4.69,0,0,1-4.3-1.9c-1-1.27-2-3.35-3.94-7.19-1.22-2.44-2.13-2.63-3.12-2.63a3,3,0,0,0-.63,0Zm0-13.94a11.52,11.52,0,0,0,4.07-.32,4.65,4.65,0,0,0,2.35-4.39c0-3.44-2.08-5.07-4.8-5.07a9.33,9.33,0,0,0-1.63.09Z"/><path class="cls-2" d="M137.15,7c0-2.17,0-3.71-.14-5.7A33.78,33.78,0,0,1,142.9.68h10.77c-.32,2.49-1,3.35-1.49,4a19.13,19.13,0,0,1-4.57.27h-4v7.33h9.55c-.45,3.48-1.45,4.25-3.08,4.25h-6.47v8.19a19.94,19.94,0,0,0,3.62.27c1.72,0,5.25,0,7.6-.18l.09.09A5.63,5.63,0,0,1,152.35,29a50.83,50.83,0,0,1-6.47.23,50.15,50.15,0,0,1-8-.45l-.72-.91Z"/><path class="cls-2" d="M167.92,0c2.58,0,5.7,1.09,6.83,2.26,0,1.27-.81,3.39-2.62,3.26a12,12,0,0,0-4.39-1.09c-2.4,0-3.76,1.09-3.76,2.67,0,1.85,1.4,2.9,5.7,5.34,3.8,2.13,6.29,3.85,6.29,8.28,0,5.84-5.11,8.91-10.54,8.91a12,12,0,0,1-6.74-1.76c-.9-.59-1.22-1.08-1.22-1.72a6.23,6.23,0,0,1,1.27-3.26A14.08,14.08,0,0,0,165.29,25c2.49,0,4.25-1,4.25-3,0-1.63-.77-2.67-5.39-5.2-5.25-2.81-6.24-5.75-6.24-8.55,0-3.21,2.26-8.24,10-8.24Z"/><path class="cls-2" d="M186.47,15.75c0,8,3.21,9.28,6.2,9.28,3.44,0,6.11-1.63,6.11-9.59V1.86c0-.91.36-1.09,1-1.18,1.36-.14,3.71-.18,4.62-.18-.09,1.81-.14,4.48-.14,8.24v6.47c0,12.44-6.61,14.44-12.35,14.44C183.89,29.64,180,25.39,180,16V6.7c0-3,0-4.89-.14-5.84.9-.14,4.52-.36,5.57-.36s1,.5,1,2.71Z"/><path class="cls-2" d="M218.69,0c2.58,0,5.7,1.09,6.83,2.26,0,1.27-.82,3.39-2.62,3.26a12,12,0,0,0-4.39-1.09c-2.4,0-3.76,1.09-3.76,2.67,0,1.85,1.4,2.9,5.7,5.34,3.8,2.13,6.29,3.85,6.29,8.28,0,5.84-5.11,8.91-10.54,8.91a12,12,0,0,1-6.74-1.76c-.9-.59-1.22-1.08-1.22-1.72a6.22,6.22,0,0,1,1.27-3.26A14.07,14.07,0,0,0,216.06,25c2.49,0,4.25-1,4.25-3,0-1.63-.77-2.67-5.38-5.2-5.25-2.81-6.25-5.75-6.25-8.55C208.69,5,211,0,218.64,0Z"/></g></g></svg>