<?xml version="1.0" encoding="utf-8"?>
<!-- Generator: Adobe Illustrator 23.0.1, SVG Export Plug-In . SVG Version: 6.00 Build 0)  -->
<svg version="1.1" id="Layer_1" xmlns="http://www.w3.org/2000/svg" xmlns:xlink="http://www.w3.org/1999/xlink" x="0px" y="0px"
	 viewBox="0 0 70 80" style="enable-background:new 0 0 70 80;" xml:space="preserve">
<style type="text/css">
	.st0{fill:#FFFFFF;}
	.st1{fill:#FCC250;}
	.st2{opacity:0.1;fill:#FFFFFF;enable-background:new    ;}
</style>
<g id="Group_295" transform="translate(89.448 33.231)">
	<path id="Path_14" class="st0" d="M-28.26,41.45c-1.52-0.09-2.29-1.24-3.18-2.23c-8.72-9.63-17.41-19.28-26.18-28.87
		c-1.92-2.1-1.9-3.91-0.02-6c5.99-6.67,11.92-13.4,17.85-20.11c1.35-1.53,2.92-2.94,4.88-1.4c2.42,1.9,0.48,3.58-0.64,5.37
		c-3.57,5.71-8.86,9.88-13.34,14.75c-3.32,3.6-2.83,5.55,0.28,8.79c7.4,7.72,14.38,15.85,21.52,23.81c1.18,1.31,2.3,2.67,1.21,4.57
		C-26.37,40.98-27.28,41.48-28.26,41.45z"/>
	<path id="Path_16" class="st1" d="M-51.46-7.99c-1.58,2.95-3.67,4.03-6.54,4.61c-5.1,1.04-7.84,4.61-7.99,9.81
		c-0.14,5.17,2.43,8.88,7.3,10.47c2.79,0.91,5.48,1.49,6.55,4.66c-7.53,1.81-12.97-0.06-16.88-5.76
		c-4.04-5.88-3.98-12.66,0.16-18.18C-64.67-7.98-58.45-10.05-51.46-7.99z"/>
	<path id="Path_18" class="st0" d="M-52.41-24.62c-0.41,2.39,1.04,6.28-2.82,6.31c-4.37,0.03-2.78-4.15-2.98-6.67
		c-0.18-2.27-0.84-5.66,2.96-5.47C-51.64-30.27-52.72-26.93-52.41-24.62z"/>
	<path id="Path_19" class="st0" d="M-52.34,37.81c-0.41,2.55,0.71,6.04-2.8,6.18c-4.09,0.16-3.12-3.54-3.06-5.99
		c0.06-2.42-1.1-6.25,2.87-6.22C-51.4,31.82-52.97,35.73-52.34,37.81z"/>
	<path id="Path_20" class="st1" d="M-41.68,0.71c1.5,2.93,1.33,5.59,1.11,8.22c-0.13,1.61-0.05,3.95-2.1,4.01
		c-1.68,0.06-2.82-1.96-3.22-3.58C-46.81,5.62-45.45,2.71-41.68,0.71z"/>
</g>
<path class="st2" d="M31.25,71.23c0.06-2.42-1.1-6.25,2.87-6.22c3.93,0.03,2.37,3.95,2.99,6.03c-0.12,0.77-0.11,1.61-0.12,2.43
	c6.2-0.37,11.93-2.44,16.74-5.76c-7.28-8.06-14.56-16.11-21.89-24.13c-1.92-2.1-1.9-3.91-0.02-5.99
	c5.99-6.67,11.92-13.4,17.85-20.11c1.35-1.53,2.92-2.94,4.88-1.4c2.42,1.9,0.48,3.58-0.64,5.37c-3.57,5.71-8.86,9.88-13.34,14.75
	c-3.32,3.6-2.83,5.55,0.28,8.79c5.94,6.2,11.61,12.65,17.3,19.08C64.23,58.07,68,49.75,68,40.54C68,22.98,54.28,8.63,36.97,7.61
	c0.01,0.35,0.02,0.69,0.06,1.01c-0.41,2.39,1.04,6.28-2.82,6.31c-4.37,0.03-2.78-4.16-2.98-6.67c-0.01-0.16-0.03-0.32-0.04-0.48
	C14.76,9.66,2,23.61,2,40.54c0,16.91,12.72,30.84,29.12,32.77C31.15,72.59,31.23,71.87,31.25,71.23z M48.88,42.16
	c-0.13,1.61-0.05,3.95-2.1,4.02c-1.68,0.06-2.82-1.96-3.22-3.58c-0.92-3.74,0.43-6.66,4.2-8.65C49.27,36.87,49.09,39.54,48.88,42.16
	z M20.59,30.85c4.19-5.6,10.4-7.67,17.39-5.61c-1.58,2.95-3.67,4.03-6.54,4.61c-5.1,1.04-7.84,4.61-7.99,9.81
	c-0.14,5.17,2.43,8.88,7.3,10.47c2.79,0.91,5.48,1.49,6.55,4.66c-7.53,1.81-12.97-0.06-16.88-5.76
	C16.4,43.15,16.46,36.37,20.59,30.85z"/>
</svg>
