<?xml version="1.0" encoding="utf-8"?>
<!-- Generator: Adobe Illustrator 22.1.0, SVG Export Plug-In . SVG Version: 6.00 Build 0)  -->
<svg version="1.1" id="Capa_1" xmlns="http://www.w3.org/2000/svg" xmlns:xlink="http://www.w3.org/1999/xlink" x="0px" y="0px"
	 viewBox="0 0 178.9 160.2" style="enable-background:new 0 0 178.9 160.2;" xml:space="preserve">
<style type="text/css">
	.st0{opacity:0.9;fill:#9B161C;enable-background:new    ;}
	.st1{fill:#9B161C;enable-background:new    ;}
</style>
<title>logo-tu-crm</title>
<g>
	<path class="st0" d="M81.2,27.1c-3.3-1.3-5.4-4.3-6.9-7.9s-1.8-14.8,0-17.5c0.4-0.5,1.3-1.1,2.2-1.6C55,1.6,31.4,7.4,6.6,20.4
		c-5.4,2.7-7.9,9-6,14.8L31.7,127c0.9,2.7,2.7,4.9,5.1,6.3l41.9,26.9c-7-8.1-14.6-19-14.6-19S84.5,28.4,81.2,27.1z"/>
	<path class="st1" d="M114.8,141.2c0,0-7.6,10.8-14.6,19l41.9-26.9c2.3-1.4,4.2-3.6,5.1-6.3l31.1-91.7c2-5.8-0.5-12.1-6-14.8
		C147.5,7.4,123.9,1.6,102.4,0c0.9,0.5,1.8,1.1,2.2,1.6c1.8,2.7,1.4,13.9,0,17.5c-1.4,3.6-3.6,6.7-6.9,7.9
		C94.4,28.4,114.8,141.2,114.8,141.2z"/>
</g>
</svg>
