<?xml version="1.0" encoding="utf-8"?>
<!-- Generator: Adobe Illustrator 21.1.0, SVG Export Plug-In . SVG Version: 6.00 Build 0)  -->
<svg version="1.1" id="Capa_1" xmlns="http://www.w3.org/2000/svg" xmlns:xlink="http://www.w3.org/1999/xlink" x="0px" y="0px"
	 viewBox="0 0 427.8 89.7" style="enable-background:new 0 0 427.8 89.7;" xml:space="preserve">
<style type="text/css">
	.st0{fill:#98171D;}
	.st1{opacity:0.9;fill:#9B161C;}
</style>
<g>
	<path class="st0" d="M133.2,55.5c0.3,2.2,0.9,3.9,1.9,5c1.7,2,4.6,3,8.6,3c2.4,0,4.4-0.3,6-0.8c2.9-1,4.3-2.9,4.3-5.6
		c0-1.6-0.7-2.8-2.1-3.7c-1.4-0.9-3.7-1.6-6.7-2.3l-5.3-1.2c-5.2-1.1-8.7-2.4-10.7-3.7c-3.3-2.2-4.9-5.7-4.9-10.5
		c0-4.4,1.6-8,4.8-10.8c3.2-2.9,7.9-4.3,14.1-4.3c5.2,0,9.6,1.4,13.3,4.1c3.7,2.7,5.6,6.7,5.8,11.8h-9.8c-0.2-2.9-1.5-5-3.9-6.2
		c-1.6-0.8-3.6-1.2-6-1.2c-2.7,0-4.8,0.5-6.4,1.6c-1.6,1.1-2.4,2.5-2.4,4.4c0,1.7,0.8,3,2.4,3.9c1,0.6,3.2,1.2,6.5,2l8.5,2
		c3.7,0.9,6.5,2.1,8.4,3.5c2.9,2.3,4.3,5.6,4.3,9.9c0,4.4-1.7,8.1-5.1,11.1c-3.4,2.9-8.3,4.4-14.5,4.4c-6.4,0-11.4-1.4-15.1-4.3
		c-3.7-2.9-5.5-6.9-5.5-11.9H133.2z"/>
	<path class="st0" d="M184.4,48.7c1.7-0.2,3-0.5,3.8-0.8c1.4-0.6,2-1.5,2-2.7c0-1.5-0.5-2.5-1.6-3c-1-0.6-2.6-0.8-4.6-0.8
		c-2.2,0-3.8,0.5-4.8,1.6c-0.7,0.8-1.1,1.9-1.3,3.3h-9.1c0.2-3.1,1.1-5.7,2.6-7.7c2.5-3.2,6.8-4.7,12.8-4.7c4,0,7.5,0.8,10.5,2.3
		s4.6,4.5,4.6,8.8v16.5c0,1.1,0,2.5,0.1,4.2c0.1,1.2,0.3,2.1,0.6,2.5c0.3,0.4,0.8,0.8,1.4,1.1v1.4h-10.2c-0.3-0.7-0.5-1.4-0.6-2
		c-0.1-0.6-0.2-1.4-0.3-2.2c-1.3,1.4-2.8,2.6-4.5,3.6c-2,1.2-4.3,1.7-6.9,1.7c-3.3,0-6-0.9-8.1-2.8s-3.2-4.5-3.2-7.9
		c0-4.4,1.7-7.6,5.1-9.6c1.9-1.1,4.6-1.8,8.3-2.3L184.4,48.7z M190.1,53.1c-0.6,0.4-1.2,0.7-1.8,0.9c-0.6,0.2-1.5,0.4-2.5,0.6
		l-2.1,0.4c-2,0.4-3.4,0.8-4.3,1.3c-1.5,0.9-2.2,2.2-2.2,4c0,1.6,0.5,2.8,1.4,3.5c0.9,0.7,2,1.1,3.3,1.1c2.1,0,3.9-0.6,5.7-1.8
		c1.7-1.2,2.6-3.4,2.7-6.5V53.1z"/>
	<path class="st0" d="M217.3,70.5h-9.4V22h9.4V70.5z"/>
	<path class="st0" d="M249.9,35.3c2.5,1.1,4.6,2.9,6.2,5.3c1.5,2.1,2.4,4.6,2.9,7.4c0.3,1.7,0.4,4,0.3,7.1h-26.2
		c0.1,3.6,1.4,6.1,3.8,7.6c1.4,0.9,3.2,1.4,5.2,1.4c2.1,0,3.9-0.5,5.2-1.6c0.7-0.6,1.4-1.4,1.9-2.5h9.6c-0.3,2.1-1.4,4.3-3.5,6.5
		c-3.2,3.5-7.7,5.2-13.5,5.2c-4.8,0-9-1.5-12.7-4.4c-3.7-2.9-5.5-7.7-5.5-14.4c0-6.2,1.7-11,5-14.3c3.3-3.3,7.6-5,12.8-5
		C244.6,33.7,247.4,34.2,249.9,35.3z M235.8,43.5c-1.3,1.4-2.2,3.2-2.5,5.6h16.2c-0.2-2.5-1-4.4-2.5-5.7c-1.5-1.3-3.4-1.9-5.6-1.9
		C239,41.4,237.2,42.1,235.8,43.5z"/>
	<path class="st0" d="M271.3,59.1c0.2,1.7,0.6,2.9,1.3,3.6c1.2,1.3,3.3,1.9,6.5,1.9c1.9,0,3.3-0.3,4.4-0.8s1.6-1.4,1.6-2.5
		c0-1.1-0.4-1.9-1.3-2.4c-0.9-0.5-4.2-1.5-9.8-2.8c-4.1-1-7-2.3-8.6-3.8c-1.7-1.5-2.5-3.6-2.5-6.5c0-3.3,1.3-6.2,3.9-8.6
		c2.6-2.4,6.3-3.6,11-3.6c4.5,0,8.2,0.9,11,2.7c2.8,1.8,4.5,4.9,4.9,9.3h-9.4c-0.1-1.2-0.5-2.2-1-2.9c-1-1.3-2.8-1.9-5.3-1.9
		c-2,0-3.5,0.3-4.4,1c-0.9,0.6-1.3,1.4-1.3,2.2c0,1.1,0.5,1.9,1.4,2.3c0.9,0.5,4.2,1.4,9.8,2.6c3.7,0.9,6.5,2.2,8.4,4
		c1.8,1.8,2.8,4.1,2.8,6.8c0,3.6-1.3,6.5-4,8.7s-6.8,3.4-12.3,3.4c-5.7,0-9.8-1.2-12.5-3.6s-4-5.4-4-9.1H271.3z"/>
	<path class="st1" d="M334.6,22h14.6v48.6h-9.5V37.7c0-0.9,0-2.3,0-4c0-1.7,0-3,0-3.9l-9.2,40.8h-9.9l-9.1-40.8c0,0.9,0,2.2,0,3.9
		c0,1.7,0,3,0,4v32.9h-9.5V22h14.8l8.8,38.2L334.6,22z"/>
	<path class="st1" d="M372,48.7c1.7-0.2,3-0.5,3.8-0.8c1.4-0.6,2-1.5,2-2.7c0-1.5-0.5-2.5-1.6-3c-1-0.6-2.6-0.8-4.6-0.8
		c-2.2,0-3.8,0.5-4.8,1.6c-0.7,0.8-1.1,1.9-1.3,3.3h-9.1c0.2-3.1,1.1-5.7,2.6-7.7c2.5-3.2,6.8-4.7,12.8-4.7c4,0,7.5,0.8,10.5,2.3
		s4.6,4.5,4.6,8.8v16.5c0,1.1,0,2.5,0.1,4.2c0.1,1.2,0.3,2.1,0.6,2.5s0.8,0.8,1.4,1.1v1.4h-10.2c-0.3-0.7-0.5-1.4-0.6-2
		c-0.1-0.6-0.2-1.4-0.3-2.2c-1.3,1.4-2.8,2.6-4.5,3.6c-2,1.2-4.3,1.7-6.9,1.7c-3.3,0-6-0.9-8.1-2.8c-2.1-1.9-3.2-4.5-3.2-7.9
		c0-4.4,1.7-7.6,5.1-9.6c1.9-1.1,4.6-1.8,8.3-2.3L372,48.7z M377.8,53.1c-0.6,0.4-1.2,0.7-1.8,0.9c-0.6,0.2-1.5,0.4-2.5,0.6
		l-2.1,0.4c-2,0.4-3.4,0.8-4.3,1.3c-1.5,0.9-2.2,2.2-2.2,4c0,1.6,0.5,2.8,1.4,3.5c0.9,0.7,2,1.1,3.3,1.1c2.1,0,3.9-0.6,5.7-1.8
		c1.7-1.2,2.6-3.4,2.7-6.5V53.1z"/>
	<path class="st1" d="M424.3,36.7c2.4,1.9,3.5,5.2,3.5,9.7v24.2h-9.6V48.7c0-1.9-0.3-3.3-0.8-4.4c-0.9-1.8-2.7-2.8-5.2-2.8
		c-3.2,0-5.3,1.4-6.5,4.1c-0.6,1.4-0.9,3.3-0.9,5.5v19.4h-9.4V34.7h9.1v5.2c1.2-1.8,2.3-3.2,3.4-4c1.9-1.5,4.4-2.2,7.3-2.2
		C418.9,33.8,422,34.7,424.3,36.7z"/>
</g>
<g>
	<path class="st1" d="M76.3,3.5C76.9,3.7,77.4,3.8,78,4C77.4,3.8,76.9,3.7,76.3,3.5z"/>
	<path class="st1" d="M92.6,9.8c0.4,0.2,0.7,0.4,1.1,0.5C93.3,10.1,93,10,92.6,9.8z"/>
	<path class="st1" d="M88.9,8.1c0.4,0.2,0.8,0.4,1.2,0.5C89.7,8.4,89.3,8.2,88.9,8.1z"/>
	<path class="st1" d="M73.5,2.7c0.6,0.2,1.2,0.3,1.8,0.5C74.7,3.1,74.1,2.9,73.5,2.7z"/>
	<path class="st1" d="M94.1,10.6c0.5,0.3,1,0.5,1.4,0.7C95.1,11.1,94.6,10.8,94.1,10.6z"/>
	<path class="st1" d="M81.5,5.2c0.6,0.2,1.3,0.5,1.9,0.7C82.8,5.6,82.1,5.4,81.5,5.2z"/>
	<path class="st1" d="M90.8,8.9c0.4,0.2,0.7,0.4,1.1,0.5C91.6,9.3,91.2,9.1,90.8,8.9z"/>
	<path class="st1" d="M86.7,7.1c0.5,0.2,1,0.4,1.5,0.6C87.7,7.5,87.2,7.3,86.7,7.1z"/>
	<path class="st1" d="M83.9,6c0.8,0.3,1.5,0.6,2.2,0.9C85.4,6.6,84.6,6.3,83.9,6z"/>
	<path class="st1" d="M79,4.3c0.6,0.2,1.1,0.4,1.7,0.5C80.1,4.7,79.6,4.5,79,4.3z"/>
	<path class="st1" d="M58.7,0.2C58,0.1,57.3,0.1,56.6,0c0,0,0,0,0,0C57.3,0.1,58,0.1,58.7,0.2z"/>
	<path class="st1" d="M63.3,0.7c0.8,0.1,1.5,0.2,2.3,0.4C64.8,1,64.1,0.8,63.3,0.7z"/>
	<path class="st1" d="M66.5,1.2c1,0.2,2,0.4,3,0.6C68.5,1.6,67.5,1.4,66.5,1.2z"/>
	<path class="st1" d="M60,0.3c0.7,0.1,1.4,0.2,2.1,0.3C61.4,0.5,60.7,0.4,60,0.3z"/>
	<path class="st1" d="M45,15.1c-1.8-0.7-3-2.4-3.8-4.4c-0.8-2-1-8.2,0-9.7c0.2-0.3,0.7-0.6,1.2-0.9C30.5,1,17.4,4.2,3.7,11.4
		c-3,1.5-4.4,5-3.3,8.2l17.2,50.8c0.5,1.5,1.5,2.7,2.8,3.5l23.2,14.9c-3.9-4.5-8.1-10.5-8.1-10.5S46.8,15.8,45,15.1z"/>
	<path class="st1" d="M70.1,2c0.8,0.2,1.6,0.3,2.3,0.5C71.7,2.3,70.9,2.1,70.1,2z"/>
	<path class="st0" d="M95.5,11.3c-0.4-0.2-0.9-0.5-1.4-0.7c-0.2-0.1-0.3-0.2-0.5-0.2c-0.3-0.2-0.7-0.4-1.1-0.5
		c-0.2-0.1-0.4-0.2-0.6-0.3c-0.4-0.2-0.7-0.3-1.1-0.5c-0.2-0.1-0.5-0.2-0.7-0.3c-0.4-0.2-0.8-0.4-1.2-0.5c-0.2-0.1-0.5-0.2-0.7-0.3
		c-0.5-0.2-1-0.4-1.5-0.6C86.5,7,86.3,7,86.1,6.9c-0.7-0.3-1.5-0.6-2.2-0.9c-0.2-0.1-0.3-0.1-0.5-0.2c-0.6-0.2-1.2-0.5-1.9-0.7
		c-0.3-0.1-0.6-0.2-0.9-0.3c-0.5-0.2-1.1-0.4-1.7-0.5c-0.3-0.1-0.7-0.2-1-0.3c-0.5-0.2-1.1-0.3-1.6-0.5c-0.4-0.1-0.7-0.2-1.1-0.3
		c-0.6-0.2-1.2-0.3-1.8-0.5c-0.3-0.1-0.7-0.2-1-0.3c-0.8-0.2-1.5-0.4-2.3-0.5c-0.2,0-0.4-0.1-0.6-0.1c-1-0.2-2-0.4-3-0.6
		c-0.3-0.1-0.6-0.1-0.9-0.1c-0.8-0.1-1.5-0.3-2.3-0.4c-0.4-0.1-0.8-0.1-1.2-0.2c-0.7-0.1-1.4-0.2-2.1-0.3c-0.4,0-0.9-0.1-1.3-0.1
		C58,0.1,57.3,0.1,56.6,0c0.6,0.3,1,0.6,1.2,1c1,1.6,0.8,7.8,0,9.7c-0.8,2-2,3.7-3.8,4.4c-1.8,0.7,9.6,63.3,9.6,63.3
		s-4.8,6.7-8.9,11.3l23.5-14.6c1.3-0.8,2.4-2.1,2.9-3.6l17.6-52.1C99.8,16.3,98.4,12.9,95.5,11.3z"/>
</g>
</svg>
