<svg xmlns="http://www.w3.org/2000/svg" viewBox="0 0 214.76 304.35"><defs><style>.cls-1{fill:none;}</style></defs><title>loading</title><g id="Capa_2" data-name="Capa 2"><g id="Capa_1-2" data-name="Capa 1"><polygon class="cls-1" points="180.46 304.36 125.57 304.36 214.76 84.54 214.76 0 196.57 0 73.08 304.36 18.19 304.36 141.68 0 89.19 0 0 219.82 0 304.36 214.76 304.36 214.76 219.82 180.46 304.36"/><polygon class="cls-1" points="0 0 0 84.54 34.3 0 0 0"/><polygon points="180.46 304.36 214.76 219.82 214.76 84.54 125.57 304.36 180.46 304.36"/><polygon points="73.08 304.36 196.57 0 141.68 0 18.19 304.36 73.08 304.36"/><polygon points="34.3 0 0 84.54 0 219.82 89.19 0 34.3 0"/></g></g></svg>