<svg xmlns="http://www.w3.org/2000/svg" viewBox="0 0 867 693"><defs><style>.cls-1{fill:#f2f2f2;}.cls-2{fill:gray;}.cls-3{fill:#ccc;}.cls-4{fill:#e6e6e6;}.cls-5{fill:#333;}.cls-5,.cls-7{opacity:0.07;}.cls-6{fill:#b3b3b3;}.cls-8{fill:#f2b283;}.cls-9{fill:#98171d;}.cls-10{fill:#fff;opacity:0.62;}.cls-11{fill:#8cc63f;}.cls-12{fill:#d9e021;}.cls-13{fill:#fcee21;}.cls-14{fill:#fbb03b;}.cls-15{fill:#999;}</style></defs><title>computer-1</title><g id="Capa_2" data-name="Capa 2"><g id="Capa_1-2" data-name="Capa 1"><path class="cls-1" d="M164,89.22a62.1,62.1,0,0,0-11.68,1,31,31,0,0,0-8.5,2.81,10.08,10.08,0,0,0-4.52,4.1,5.21,5.21,0,0,0,.19,4.94,13.91,13.91,0,0,0,5,4.86,38.24,38.24,0,0,0,8.5,3.9,67.61,67.61,0,0,0,10.87,2.61,78.74,78.74,0,0,0,12.13.94,62.36,62.36,0,0,0,11.22-.94,32.68,32.68,0,0,0,8.4-2.61,11.27,11.27,0,0,0,4.81-3.9,5.12,5.12,0,0,0,.35-4.86,12.18,12.18,0,0,0-4.5-4.94,35.73,35.73,0,0,0-8.4-4.1,66.62,66.62,0,0,0-11.16-2.81,79.26,79.26,0,0,0-12.67-1m-14,91.84a11.14,11.14,0,0,1-1.65-.12,10.05,10.05,0,0,1-1.49-.3,6,6,0,0,1-1.15-.46,1.72,1.72,0,0,1-.66-.56.54.54,0,0,1,0-.57,1.34,1.34,0,0,1,.61-.46,4.37,4.37,0,0,1,1.11-.31,9.9,9.9,0,0,1,1.53-.12h77.47a12.4,12.4,0,0,1,1.64.12,9.32,9.32,0,0,1,1.44.31,4.9,4.9,0,0,1,1.07.46,1.37,1.37,0,0,1,.56.57.52.52,0,0,1-.08.56,1.68,1.68,0,0,1-.68.46,5.13,5.13,0,0,1-1.16.3,9.08,9.08,0,0,1-1.54.12H150m363.24,0a9.63,9.63,0,0,1-1.57-.12,6.09,6.09,0,0,1-1.24-.3,2.28,2.28,0,0,1-.8-.46.64.64,0,0,1-.24-.56,1,1,0,0,1,.41-.57,3.58,3.58,0,0,1,1-.46,7.69,7.69,0,0,1,1.35-.31,11.71,11.71,0,0,1,1.61-.12H714.18a9.8,9.8,0,0,1,1.53.12,4.46,4.46,0,0,1,1.12.31,1.34,1.34,0,0,1,.61.46.54.54,0,0,1,0,.57,1.68,1.68,0,0,1-.65.56,5.73,5.73,0,0,1-1.15.46,9.77,9.77,0,0,1-1.47.3,11.38,11.38,0,0,1-1.66.12H513.21m176.29-8.79,13-24.73h33.93l-14.69,24.73H689.5m-376-8c.74,0,1.47,0,2.18-.07s1.42-.13,2.09-.23,1.31-.23,1.91-.39a12.42,12.42,0,0,0,1.69-.54l41.42-16.54a19.26,19.26,0,0,1,2.18-.7,24.61,24.61,0,0,1,2.48-.52c.88-.14,1.79-.25,2.74-.32s1.92-.11,2.91-.11,2,0,2.94.11,1.91.18,2.81.32,1.78.31,2.61.52a22.34,22.34,0,0,1,2.34.7l19.86,7.25a17.17,17.17,0,0,0,1.83.55c.64.16,1.33.29,2,.4s1.44.19,2.19.25,1.53.08,2.31.08,1.56,0,2.31-.08,1.48-.14,2.18-.25,1.37-.24,2-.4a15.56,15.56,0,0,0,1.78-.55,19.7,19.7,0,0,1,2.28-.7c.81-.2,1.66-.37,2.54-.5s1.8-.23,2.72-.3,1.87-.1,2.81-.1,1.88,0,2.8.1,1.84.17,2.72.3,1.74.3,2.55.5a19.88,19.88,0,0,1,2.29.7l44.65,16.75a16.7,16.7,0,0,0,1.68.51c.61.15,1.24.27,1.91.38s1.37.17,2.09.23,1.46.07,2.22.07,1.51,0,2.24-.07,1.45-.13,2.15-.23,1.36-.23,2-.38,1.24-.32,1.81-.51l12.51-4.3a1.55,1.55,0,0,1,.23-.06l.25-.05.26,0h.54l.25,0,.24.05a1.17,1.17,0,0,1,.2.06.71.71,0,0,1,.28.17.22.22,0,0,1,.07.19.29.29,0,0,1-.13.19,1.19,1.19,0,0,1-.34.17l-12.5,4.28a21.44,21.44,0,0,1-2.25.64c-.79.19-1.62.34-2.48.47s-1.76.22-2.67.28-1.84.1-2.78.1-1.87,0-2.76-.1-1.76-.16-2.59-.28-1.63-.28-2.37-.47a17.78,17.78,0,0,1-2.09-.64l-44.67-16.69a15.12,15.12,0,0,0-1.83-.56,20.67,20.67,0,0,0-2.05-.4c-.7-.11-1.43-.19-2.18-.24s-1.49-.09-2.25-.09-1.51,0-2.25.09-1.47.13-2.18.24a20.46,20.46,0,0,0-2,.4,14.59,14.59,0,0,0-1.83.56c-.69.25-1.43.48-2.21.68s-1.62.36-2.49.5-1.78.23-2.71.3-1.89.1-2.86.1-1.93,0-2.87-.1-1.85-.17-2.73-.3-1.73-.3-2.53-.5-1.57-.43-2.28-.68l-19.85-7.23a17.46,17.46,0,0,0-1.93-.57c-.68-.17-1.39-.31-2.12-.42s-1.49-.19-2.25-.25S374,146,373.2,146s-1.53,0-2.27.08-1.48.14-2.19.25a20,20,0,0,0-2,.42,13.93,13.93,0,0,0-1.79.57l-41.44,16.49a16.3,16.3,0,0,1-2,.66c-.73.19-1.52.35-2.34.48s-1.7.22-2.6.29-1.83.1-2.79.1-1.9,0-2.84-.1-1.85-.16-2.74-.29-1.75-.29-2.58-.48-1.61-.41-2.36-.66l-10.89-3.63c-.6-.2-1.25-.38-1.92-.54s-1.39-.28-2.11-.39S286.8,159,286,159s-1.54-.09-2.31-.09-1.54,0-2.27.09-1.43.13-2.1.24-1.29.24-1.87.39a13.78,13.78,0,0,0-1.61.54l-19.31,8a15.47,15.47,0,0,1-2,.66,23.09,23.09,0,0,1-2.29.47c-.81.12-1.66.21-2.53.28s-1.76.09-2.67.09-1.83,0-2.75-.09-1.83-.16-2.74-.28-1.79-.28-2.65-.47-1.7-.41-2.49-.66l-47.8-15.11c-.66-.21-1.35-.39-2.07-.55s-1.46-.3-2.22-.41-1.54-.19-2.33-.25-1.57-.09-2.36-.09-1.55,0-2.28.09-1.42.14-2.08.25a14.24,14.24,0,0,0-1.81.41,10.31,10.31,0,0,0-1.52.55L152.81,162a1,1,0,0,1-.18.07l-.22,0a1,1,0,0,1-.25,0h-.54a1.33,1.33,0,0,1-.28,0l-.27,0-.26-.07a2,2,0,0,1-.41-.17.51.51,0,0,1-.21-.2.17.17,0,0,1,0-.19.42.42,0,0,1,.21-.17l19.18-8.91a12.78,12.78,0,0,1,1.88-.69,21.06,21.06,0,0,1,2.26-.51c.81-.14,1.68-.24,2.58-.31s1.86-.11,2.85-.11,2,0,3,.11,1.94.17,2.89.31,1.88.31,2.77.51,1.76.43,2.58.69l47.81,15.15c.62.2,1.28.37,2,.52s1.38.28,2.11.38,1.47.18,2.22.24,1.51.08,2.28.08,1.5,0,2.21-.08,1.39-.13,2-.24a17.65,17.65,0,0,0,1.82-.38,11.72,11.72,0,0,0,1.55-.52l19.31-8.07a15.45,15.45,0,0,1,2-.67,21.41,21.41,0,0,1,2.34-.49c.83-.14,1.7-.24,2.61-.31s1.86-.1,2.83-.1,1.93,0,2.88.1,1.89.17,2.79.31,1.79.29,2.63.49,1.65.42,2.41.67L305,163.05a18.3,18.3,0,0,0,1.94.54c.68.16,1.39.28,2.11.39s1.45.18,2.19.23,1.48.07,2.22.07m329,8,15.14-35.18h34.63l-17.48,35.18H642.45m-47.05,0,16.17-48.48h35.51l-19.39,48.48H595.4m-47,0L562,114.41h36.13l-17.53,57.86H548.36M284,111.49a11.21,11.21,0,0,1-1.86-.15,8.7,8.7,0,0,1-1.6-.4,4.72,4.72,0,0,1-1.17-.6,1.56,1.56,0,0,1-.58-.74.83.83,0,0,1,.16-.74,2.18,2.18,0,0,1,.84-.61,6.29,6.29,0,0,1,1.38-.41,9.88,9.88,0,0,1,1.79-.15h61.67a11,11,0,0,1,1.86.15,8.83,8.83,0,0,1,1.56.41,3.91,3.91,0,0,1,1.1.61,1.21,1.21,0,0,1,.48.74.88.88,0,0,1-.26.74,2.61,2.61,0,0,1-.91.6,6,6,0,0,1-1.42.4,10,10,0,0,1-1.79.15H284m-2.69-9.82a11.56,11.56,0,0,1-1.89-.16,8.8,8.8,0,0,1-1.63-.42,4.34,4.34,0,0,1-1.2-.62,1.56,1.56,0,0,1-.59-.77.87.87,0,0,1,.16-.76,2.24,2.24,0,0,1,.85-.63,5.79,5.79,0,0,1,1.4-.43,10.23,10.23,0,0,1,1.82-.15H343a11.31,11.31,0,0,1,1.89.15,8.14,8.14,0,0,1,1.59.43,3.92,3.92,0,0,1,1.12.63,1.32,1.32,0,0,1,.5.76,1,1,0,0,1-.26.77,2.48,2.48,0,0,1-.93.62,6.31,6.31,0,0,1-1.44.42,10.39,10.39,0,0,1-1.83.16H281.33M531.4,97.73a10.51,10.51,0,0,1-1.84-.16,6.79,6.79,0,0,1-1.45-.42,2.57,2.57,0,0,1-.92-.64.91.91,0,0,1-.25-.78,1.34,1.34,0,0,1,.51-.77,3.92,3.92,0,0,1,1.14-.64,8.25,8.25,0,0,1,1.6-.43,10.62,10.62,0,0,1,1.91-.16H767.89a8.58,8.58,0,0,1,1.78.16,4.45,4.45,0,0,1,1.28.43,1.38,1.38,0,0,1,.65.64.83.83,0,0,1-.09.77,2.5,2.5,0,0,1-.85.78,6.52,6.52,0,0,1-1.4.64,12.9,12.9,0,0,1-1.78.42,12.64,12.64,0,0,1-2,.16H531.4M278.55,91.49a12,12,0,0,1-1.93-.16,10,10,0,0,1-1.66-.44,4.57,4.57,0,0,1-1.23-.65,1.61,1.61,0,0,1-.6-.79.9.9,0,0,1,.16-.8,2.26,2.26,0,0,1,.86-.65,5.53,5.53,0,0,1,1.42-.44,10.57,10.57,0,0,1,1.86-.16h63.95a11.74,11.74,0,0,1,1.92.16,7.77,7.77,0,0,1,1.62.44,4.17,4.17,0,0,1,1.14.65,1.41,1.41,0,0,1,.51.8,1,1,0,0,1-.26.79,2.56,2.56,0,0,1-.94.65,7.12,7.12,0,0,1-1.47.44,10.83,10.83,0,0,1-1.86.16H278.55m225.22-2.72a9.92,9.92,0,0,1-1.87-.17,6.86,6.86,0,0,1-1.5-.43,2.84,2.84,0,0,1-1-.66,1,1,0,0,1-.29-.8,1.27,1.27,0,0,1,.48-.8,3.94,3.94,0,0,1,1.12-.66,8.52,8.52,0,0,1,1.61-.45,11.78,11.78,0,0,1,1.93-.16h64.26a10.69,10.69,0,0,1,1.87.16,6.2,6.2,0,0,1,1.45.45,2.46,2.46,0,0,1,.89.66.93.93,0,0,1,.18.8,1.53,1.53,0,0,1-.58.8,4.34,4.34,0,0,1-1.2.66,8.8,8.8,0,0,1-1.65.43,10.91,10.91,0,0,1-1.93.17h-63.8m77.85,0a9.55,9.55,0,0,1-1.85-.17,6,6,0,0,1-1.44-.43,2.42,2.42,0,0,1-.88-.66.93.93,0,0,1-.18-.8,1.55,1.55,0,0,1,.59-.8,4.56,4.56,0,0,1,1.21-.66,9.2,9.2,0,0,1,1.67-.45,12.31,12.31,0,0,1,2-.16H773.28a9.66,9.66,0,0,1,1.81.16,4.5,4.5,0,0,1,1.29.45,1.37,1.37,0,0,1,.65.66.87.87,0,0,1-.09.8,2.63,2.63,0,0,1-.87.8,6.67,6.67,0,0,1-1.44.66,11.44,11.44,0,0,1-1.81.43,11.79,11.79,0,0,1-2,.17H581.62m-56.93-9.26a10.28,10.28,0,0,1-1.9-.16,6.32,6.32,0,0,1-1.5-.46,2.71,2.71,0,0,1-1-.67,1,1,0,0,1-.27-.83,1.49,1.49,0,0,1,.52-.83,4.15,4.15,0,0,1,1.17-.68,8.74,8.74,0,0,1,1.65-.46,11.17,11.17,0,0,1,2-.17H778.85a9.12,9.12,0,0,1,1.83.17,4.53,4.53,0,0,1,1.31.46,1.47,1.47,0,0,1,.66.68.9.9,0,0,1-.11.83,2.57,2.57,0,0,1-.89.83,7.09,7.09,0,0,1-1.46.67,11.12,11.12,0,0,1-1.85.46,12.24,12.24,0,0,1-2,.16H524.69M183.35,130.13a183.68,183.68,0,0,1-27.64-2.1,160.69,160.69,0,0,1-25.05-5.81,95.53,95.53,0,0,1-20.08-8.86C105,110,100.7,106.15,98.26,102.1S95.43,94,96.94,90.37s5-7.09,10.08-10,12-5.27,20.09-6.92a144,144,0,0,1,28.17-2.57,184.91,184.91,0,0,1,30.61,2.57,151.76,151.76,0,0,1,26.64,6.92,79.38,79.38,0,0,1,19.52,10c5,3.66,8.4,7.63,9.81,11.73a12,12,0,0,1-1.64,11.26c-2.34,3.37-6.35,6.37-11.69,8.86A79.87,79.87,0,0,1,209,128a146.8,146.8,0,0,1-25.65,2.1M471.47,70a10.69,10.69,0,0,1-1.94-.17,7.92,7.92,0,0,1-1.57-.47,3.15,3.15,0,0,1-1-.7,1.15,1.15,0,0,1-.35-.86,1.28,1.28,0,0,1,.45-.85,3.54,3.54,0,0,1,1.12-.71,7.59,7.59,0,0,1,1.64-.47,10.34,10.34,0,0,1,2-.18H784.6a8.63,8.63,0,0,1,1.86.18,4.38,4.38,0,0,1,1.33.47,1.43,1.43,0,0,1,.66.71,1,1,0,0,1-.12.85,2.71,2.71,0,0,1-.91.86,7.23,7.23,0,0,1-1.5.7,13.59,13.59,0,0,1-1.88.47A12.63,12.63,0,0,1,782,70H471.47m373-20.62h-822l94.08,139.27H750.42L844.5,49.34"/><path class="cls-2" d="M227.5,315h-7V266.59a26.12,26.12,0,0,1,26.09-26.09H287.4a19.12,19.12,0,0,0,19.1-19.09V200h7v21.41a26.13,26.13,0,0,1-26.1,26.09H246.59a19.11,19.11,0,0,0-19.09,19.09Z"/><rect class="cls-3" x="334.67" y="156.23" width="197.33" height="124.77" rx="10.52" ry="10.52"/><rect class="cls-4" x="334.67" y="141" width="197.33" height="131.3" rx="11.58" ry="11.58"/><path class="cls-5" d="M334.67,227c65.45-13.35,131.21-13.72,197.33,0V200H334.67Z"/><path class="cls-3" d="M33.55,0H833.45A33.55,33.55,0,0,1,867,33.55V38a0,0,0,0,1,0,0H0a0,0,0,0,1,0,0V33.55A33.55,33.55,0,0,1,33.55,0Z"/><rect class="cls-3" x="165" y="328.72" width="518.67" height="153.28" rx="10.52" ry="10.52"/><rect class="cls-4" x="165" y="310" width="518.67" height="161.31" rx="11.58" ry="11.58"/><rect class="cls-6" x="183.71" y="328.72" width="24.95" height="24.95"/><rect class="cls-6" x="217.58" y="328.72" width="24.95" height="24.95"/><rect class="cls-6" x="251.44" y="328.72" width="24.95" height="24.95"/><rect class="cls-6" x="285.31" y="328.72" width="24.95" height="24.95"/><rect class="cls-6" x="319.17" y="328.72" width="24.95" height="24.95"/><rect class="cls-6" x="353.04" y="328.72" width="24.95" height="24.95"/><rect class="cls-6" x="386.9" y="328.72" width="24.95" height="24.95"/><rect class="cls-6" x="420.77" y="328.72" width="24.95" height="24.95"/><rect class="cls-6" x="454.63" y="328.72" width="24.95" height="24.95"/><rect class="cls-6" x="488.5" y="328.72" width="58.82" height="24.95"/><rect class="cls-6" x="183.71" y="361.69" width="58.82" height="24.95"/><rect class="cls-6" x="251.44" y="361.69" width="24.95" height="24.95"/><rect class="cls-6" x="285.31" y="361.69" width="24.95" height="24.95"/><rect class="cls-6" x="319.17" y="361.69" width="24.95" height="24.95"/><rect class="cls-6" x="353.04" y="361.69" width="24.95" height="24.95"/><rect class="cls-6" x="386.9" y="361.69" width="24.95" height="24.95"/><rect class="cls-6" x="420.77" y="361.69" width="24.95" height="24.95"/><rect class="cls-6" x="454.63" y="361.69" width="24.95" height="24.95"/><rect class="cls-6" x="488.5" y="361.69" width="24.95" height="24.95"/><rect class="cls-6" x="183.71" y="394.66" width="24.95" height="24.95"/><rect class="cls-6" x="217.58" y="394.66" width="24.95" height="24.95"/><rect class="cls-6" x="251.44" y="394.66" width="24.95" height="24.95"/><rect class="cls-6" x="285.31" y="394.66" width="24.95" height="24.95"/><rect class="cls-6" x="319.17" y="394.66" width="24.95" height="24.95"/><rect class="cls-6" x="353.04" y="394.66" width="24.95" height="24.95"/><rect class="cls-6" x="386.9" y="394.66" width="24.95" height="24.95"/><rect class="cls-6" x="420.77" y="394.66" width="24.95" height="24.95"/><rect class="cls-6" x="454.63" y="394.66" width="24.95" height="24.95"/><polygon class="cls-6" points="522.37 361.69 522.37 394.66 488.5 394.66 488.5 419.62 522.37 419.62 547.32 419.62 547.32 394.66 547.32 361.69 522.37 361.69"/><rect class="cls-6" x="183.71" y="427.64" width="58.82" height="24.95"/><rect class="cls-6" x="251.44" y="427.64" width="228.15" height="24.95"/><rect class="cls-6" x="488.5" y="427.64" width="24.95" height="24.95"/><rect class="cls-6" x="522.37" y="427.64" width="24.95" height="24.95"/><rect class="cls-6" x="572.27" y="328.72" width="24.95" height="24.95"/><rect class="cls-6" x="606.14" y="328.72" width="24.95" height="24.95"/><rect class="cls-6" x="640" y="328.72" width="24.95" height="24.95"/><rect class="cls-6" x="572.27" y="361.69" width="24.95" height="24.95"/><rect class="cls-6" x="606.14" y="361.69" width="24.95" height="24.95"/><rect class="cls-6" x="640" y="361.69" width="24.95" height="24.95"/><rect class="cls-6" x="572.27" y="394.66" width="24.95" height="24.95"/><rect class="cls-6" x="606.14" y="394.66" width="24.95" height="24.95"/><rect class="cls-6" x="572.27" y="427.64" width="24.95" height="24.95"/><rect class="cls-6" x="606.14" y="427.64" width="24.95" height="24.95"/><rect class="cls-6" x="640" y="394.66" width="24.95" height="57.93"/><g class="cls-7"><path d="M379.33,418.91a7.5,7.5,0,0,0-7.5,7.5V445.8a3,3,0,0,1-6,0V383.5a7.5,7.5,0,0,0-15,0v54.8a1.5,1.5,0,0,1-3,0V378.5a7.5,7.5,0,0,0-15,0v59.8a1.5,1.5,0,0,1-3,0V387.1a7.5,7.5,0,0,0-15,0v51.2a1.5,1.5,0,0,1-3,0V396.93a7.5,7.5,0,0,0-15,0V465a34.88,34.88,0,0,0,12,26.36v11.49h-8V693h67V502.87h-8v-9.4a34.7,34.7,0,0,0,6.49-6l16.56-19.76a16.9,16.9,0,0,0,3.95-10.87V426.41A7.5,7.5,0,0,0,379.33,418.91Z"/></g><g class="cls-7"><path d="M470.33,418.91a7.5,7.5,0,0,1,7.5,7.5V445.8a3,3,0,0,0,6,0V383.5a7.5,7.5,0,0,1,15,0v54.8a1.5,1.5,0,0,0,3,0V378.5a7.5,7.5,0,0,1,15,0v59.8a1.5,1.5,0,1,0,3,0V387.1a7.5,7.5,0,0,1,15,0v51.2a1.5,1.5,0,1,0,3,0V396.93a7.5,7.5,0,1,1,15,0V465a34.88,34.88,0,0,1-12,26.36v11.49h8V693h-67V502.87h8v-9.4a34.64,34.64,0,0,1-6.48-6l-16.56-19.76a16.91,16.91,0,0,1-4-10.87V426.41A7.5,7.5,0,0,1,470.33,418.91Z"/></g><path class="cls-8" d="M304.83,396.93V438.3a1.5,1.5,0,0,0,1.5,1.5h0a1.5,1.5,0,0,0,1.5-1.5V387.1a7.5,7.5,0,0,1,7.5-7.5h0a7.5,7.5,0,0,1,7.5,7.5v51.2a1.5,1.5,0,0,0,1.5,1.5h0a1.5,1.5,0,0,0,1.5-1.5V378.5a7.5,7.5,0,0,1,7.5-7.5h0a7.5,7.5,0,0,1,7.5,7.5v59.8a1.5,1.5,0,0,0,1.5,1.5h0a1.5,1.5,0,0,0,1.5-1.5V383.5a7.5,7.5,0,0,1,7.5-7.5h0a7.5,7.5,0,0,1,7.5,7.5v62.3a3,3,0,0,0,3,3h0a3,3,0,0,0,3-3V426.41a7.5,7.5,0,0,1,7.5-7.5h0a7.5,7.5,0,0,1,7.5,7.5v30.44a16.9,16.9,0,0,1-3.95,10.87l-16.56,19.76A35,35,0,0,1,332.5,500h-7.69a35,35,0,0,1-35-35V396.93a7.5,7.5,0,0,1,7.5-7.5h0A7.5,7.5,0,0,1,304.83,396.93Z"/><rect class="cls-8" x="301.83" y="484" width="51" height="41" transform="translate(654.67 1009) rotate(-180)"/><rect class="cls-9" x="293.83" y="502.87" width="67" height="190.13"/><path class="cls-8" d="M543.83,396.93V438.3a1.5,1.5,0,0,1-1.5,1.5h0a1.5,1.5,0,0,1-1.5-1.5V387.1a7.5,7.5,0,0,0-7.5-7.5h0a7.5,7.5,0,0,0-7.5,7.5v51.2a1.5,1.5,0,0,1-1.5,1.5h0a1.5,1.5,0,0,1-1.5-1.5V378.5a7.5,7.5,0,0,0-7.5-7.5h0a7.5,7.5,0,0,0-7.5,7.5v59.8a1.5,1.5,0,0,1-1.5,1.5h0a1.5,1.5,0,0,1-1.5-1.5V383.5a7.5,7.5,0,0,0-7.5-7.5h0a7.5,7.5,0,0,0-7.5,7.5v62.3a3,3,0,0,1-3,3h0a3,3,0,0,1-3-3V426.41a7.5,7.5,0,0,0-7.5-7.5h0a7.5,7.5,0,0,0-7.5,7.5v30.44a16.91,16.91,0,0,0,4,10.87l16.56,19.76A34.94,34.94,0,0,0,516.16,500h7.7a35,35,0,0,0,35-35V396.93a7.5,7.5,0,0,0-7.5-7.5h0A7.5,7.5,0,0,0,543.83,396.93Z"/><rect class="cls-8" x="495.83" y="484" width="51" height="41"/><rect class="cls-9" x="487.83" y="502.87" width="67" height="190.13"/><path class="cls-4" d="M433.93,202.13a33.25,33.25,0,0,1-4.72-.32,22.44,22.44,0,0,1-3.87-.88,9,9,0,0,1-2.64-1.31,2.24,2.24,0,0,1-1-1.61,2.12,2.12,0,0,1,.93-1.63,8.6,8.6,0,0,1,2.6-1.33,21.71,21.71,0,0,1,3.91-.91,35.07,35.07,0,0,1,9.6,0,21.59,21.59,0,0,1,3.9.91,8.48,8.48,0,0,1,2.6,1.33,2.08,2.08,0,0,1,.92,1.63,2.21,2.21,0,0,1-1,1.61,9,9,0,0,1-2.64,1.31,22.23,22.23,0,0,1-3.87.88,33.15,33.15,0,0,1-4.72.32M116.57,188.61,22.49,49.34h822L750.42,188.61H116.57m720-162.51H30.44a69.39,69.39,0,0,0-15.19,1.53A30.79,30.79,0,0,0,4.87,31.75c-2.55,1.73-4.14,3.77-4.64,6S.31,42.45,2.1,45L108.84,196.61a14.23,14.23,0,0,0,5.19,4,45.19,45.19,0,0,0,8.66,3.22A80.48,80.48,0,0,0,133.62,206a93.89,93.89,0,0,0,12.1.78H721.28a93.89,93.89,0,0,0,12.1-.78,80.48,80.48,0,0,0,10.93-2.14,45.19,45.19,0,0,0,8.66-3.22,14.23,14.23,0,0,0,5.19-4L864.9,45c1.79-2.54,2.37-5,1.87-7.22s-2.09-4.29-4.64-6a30.79,30.79,0,0,0-10.38-4.12,69.39,69.39,0,0,0-15.19-1.53"/><path class="cls-6" d="M433.94,193.81a34.26,34.26,0,0,0-4.8.33,21.71,21.71,0,0,0-3.91.91,8.6,8.6,0,0,0-2.6,1.33,2.12,2.12,0,0,0-.93,1.63,2.24,2.24,0,0,0,1,1.61,9,9,0,0,0,2.64,1.31,22.44,22.44,0,0,0,3.87.88,35,35,0,0,0,9.44,0,22.23,22.23,0,0,0,3.87-.88,9,9,0,0,0,2.64-1.31,2.21,2.21,0,0,0,1-1.61,2.08,2.08,0,0,0-.92-1.63,8.48,8.48,0,0,0-2.6-1.33,21.59,21.59,0,0,0-3.9-.91,34.26,34.26,0,0,0-4.8-.33"/><path class="cls-10" d="M259.51,49c-14,47-30.17,93.32-45.33,140H117L22,49Zm0,0c-14,47-30.17,93.32-45.33,140H403.41c54.11-46.34,109.67-89.78,158.4-140Z"/><path class="cls-9" d="M175.9,114.41a78.74,78.74,0,0,1-12.13-.94,67.61,67.61,0,0,1-10.87-2.61,38.24,38.24,0,0,1-8.5-3.9,13.91,13.91,0,0,1-5-4.86,5.21,5.21,0,0,1-.19-4.94,10.08,10.08,0,0,1,4.52-4.1,31,31,0,0,1,8.5-2.81,62.1,62.1,0,0,1,11.68-1,79.26,79.26,0,0,1,12.67,1,66.62,66.62,0,0,1,11.16,2.81,35.73,35.73,0,0,1,8.4,4.1,12.18,12.18,0,0,1,4.5,4.94,5.12,5.12,0,0,1-.35,4.86,11.27,11.27,0,0,1-4.81,3.9,32.68,32.68,0,0,1-8.4,2.61,62.36,62.36,0,0,1-11.22.94M155.28,70.93a144,144,0,0,0-28.17,2.57c-8.14,1.65-14.94,4-20.09,6.92s-8.54,6.24-10.08,10S95.78,98,98.26,102.1,105,110,110.58,113.36a95.53,95.53,0,0,0,20.08,8.86A160.69,160.69,0,0,0,155.71,128a183.68,183.68,0,0,0,27.64,2.1A146.8,146.8,0,0,0,209,128a79.87,79.87,0,0,0,19.53-5.81c5.34-2.49,9.35-5.49,11.69-8.86a12,12,0,0,0,1.64-11.26C240.45,98,237,94,232.05,90.37a79.38,79.38,0,0,0-19.52-10,151.76,151.76,0,0,0-26.64-6.92,184.91,184.91,0,0,0-30.61-2.57"/><polyline class="cls-11" points="598.17 114.41 562.04 114.41 548.36 172.27 580.64 172.27 598.17 114.41"/><polyline class="cls-12" points="647.08 123.79 611.57 123.79 595.4 172.27 627.69 172.27 647.08 123.79"/><polyline class="cls-13" points="692.22 137.09 657.59 137.09 642.45 172.27 674.74 172.27 692.22 137.09"/><polyline class="cls-14" points="736.47 147.54 702.54 147.54 689.5 172.27 721.78 172.27 736.47 147.54"/><path class="cls-9" d="M373.07,144.86c-1,0-2,0-2.91.11s-1.86.18-2.74.32a24.61,24.61,0,0,0-2.48.52,19.26,19.26,0,0,0-2.18.7l-41.42,16.54a12.42,12.42,0,0,1-1.69.54c-.6.16-1.24.28-1.91.39s-1.37.18-2.09.23-1.44.07-2.18.07-1.48,0-2.22-.07-1.47-.13-2.19-.23-1.43-.23-2.11-.39a18.3,18.3,0,0,1-1.94-.54l-10.89-3.64c-.76-.25-1.56-.48-2.41-.67s-1.72-.36-2.63-.49-1.84-.24-2.79-.31-1.91-.1-2.88-.1-1.92,0-2.83.1-1.78.17-2.61.31a21.41,21.41,0,0,0-2.34.49,15.45,15.45,0,0,0-2,.67l-19.31,8.07a11.72,11.72,0,0,1-1.55.52,17.65,17.65,0,0,1-1.82.38c-.65.11-1.33.18-2,.24s-1.45.08-2.21.08-1.53,0-2.28-.08-1.5-.13-2.22-.24-1.43-.23-2.11-.38-1.34-.32-2-.52l-47.81-15.15q-1.23-.39-2.58-.69c-.89-.2-1.82-.37-2.77-.51s-1.92-.24-2.89-.31-2-.11-3-.11-1.94,0-2.85.11-1.77.17-2.58.31a21.06,21.06,0,0,0-2.26.51,12.78,12.78,0,0,0-1.88.69l-19.18,8.91a.42.42,0,0,0-.21.17.17.17,0,0,0,0,.19.51.51,0,0,0,.21.2,2,2,0,0,0,.41.17l.26.07.27,0a1.33,1.33,0,0,0,.28,0h.54a1,1,0,0,0,.25,0l.22,0a1,1,0,0,0,.18-.07L172,153.09a10.31,10.31,0,0,1,1.52-.55,14.24,14.24,0,0,1,1.81-.41c.66-.11,1.35-.19,2.08-.25s1.49-.09,2.28-.09,1.58,0,2.36.09,1.57.14,2.33.25,1.5.24,2.22.41,1.41.34,2.07.55l47.8,15.11c.79.25,1.63.47,2.49.66s1.75.34,2.65.47,1.82.21,2.74.28,1.84.09,2.75.09,1.8,0,2.67-.09,1.72-.16,2.53-.28a23.09,23.09,0,0,0,2.29-.47,15.47,15.47,0,0,0,2-.66l19.31-8a13.78,13.78,0,0,1,1.61-.54c.58-.15,1.21-.28,1.87-.39s1.37-.19,2.1-.24,1.49-.09,2.27-.09,1.55,0,2.31.09,1.51.13,2.24.24,1.43.24,2.11.39,1.32.34,1.92.54l10.89,3.63c.75.25,1.54.47,2.36.66s1.69.35,2.58.48,1.81.22,2.74.29,1.89.1,2.84.1,1.89,0,2.79-.1,1.77-.16,2.6-.29,1.61-.29,2.34-.48a16.3,16.3,0,0,0,2-.66l41.44-16.49a13.93,13.93,0,0,1,1.79-.57,20,20,0,0,1,2-.42c.71-.11,1.44-.19,2.19-.25s1.51-.08,2.27-.08,1.53,0,2.29.08,1.52.14,2.25.25,1.44.25,2.12.42a17.46,17.46,0,0,1,1.93.57l19.85,7.23c.71.25,1.47.48,2.28.68s1.65.36,2.53.5,1.79.23,2.73.3,1.9.1,2.87.1,1.93,0,2.86-.1,1.84-.17,2.71-.3,1.7-.3,2.49-.5,1.52-.43,2.21-.68a14.59,14.59,0,0,1,1.83-.56,20.46,20.46,0,0,1,2-.4c.71-.11,1.44-.19,2.18-.24s1.5-.09,2.25-.09,1.51,0,2.25.09,1.48.13,2.18.24a20.67,20.67,0,0,1,2.05.4,15.12,15.12,0,0,1,1.83.56l44.67,16.69a17.78,17.78,0,0,0,2.09.64c.74.19,1.54.34,2.37.47s1.69.22,2.59.28,1.82.1,2.76.1,1.87,0,2.78-.1,1.8-.16,2.67-.28,1.69-.28,2.48-.47a21.44,21.44,0,0,0,2.25-.64l12.5-4.28a1.19,1.19,0,0,0,.34-.17.29.29,0,0,0,.13-.19.22.22,0,0,0-.07-.19.71.71,0,0,0-.28-.17,1.17,1.17,0,0,0-.2-.06l-.24-.05-.25,0H515l-.26,0-.25.05a1.55,1.55,0,0,0-.23.06l-12.51,4.3c-.57.19-1.17.36-1.81.51s-1.31.27-2,.38-1.41.17-2.15.23-1.48.07-2.24.07-1.5,0-2.22-.07-1.42-.13-2.09-.23-1.3-.23-1.91-.38a16.7,16.7,0,0,1-1.68-.51L441,153.76a19.88,19.88,0,0,0-2.29-.7c-.81-.2-1.66-.37-2.55-.5s-1.79-.23-2.72-.3-1.86-.1-2.8-.1-1.88,0-2.81.1-1.84.17-2.72.3-1.73.3-2.54.5a19.7,19.7,0,0,0-2.28.7,15.56,15.56,0,0,1-1.78.55c-.63.16-1.3.29-2,.4s-1.43.19-2.18.25-1.52.08-2.31.08-1.55,0-2.31-.08-1.49-.14-2.19-.25-1.4-.24-2-.4a17.17,17.17,0,0,1-1.83-.55l-19.86-7.25a22.34,22.34,0,0,0-2.34-.7c-.83-.21-1.7-.38-2.61-.52S377,145,376,145s-1.95-.11-2.94-.11"/><path class="cls-15" d="M784.6,65.55H471.76a10.34,10.34,0,0,0-2,.18,7.59,7.59,0,0,0-1.64.47,3.54,3.54,0,0,0-1.12.71,1.28,1.28,0,0,0-.45.85,1.15,1.15,0,0,0,.35.86,3.15,3.15,0,0,0,1,.7,7.92,7.92,0,0,0,1.57.47,10.69,10.69,0,0,0,1.94.17H782a12.63,12.63,0,0,0,2.06-.17,13.59,13.59,0,0,0,1.88-.47,7.23,7.23,0,0,0,1.5-.7,2.71,2.71,0,0,0,.91-.86,1,1,0,0,0,.12-.85,1.43,1.43,0,0,0-.66-.71,4.38,4.38,0,0,0-1.33-.47,8.63,8.63,0,0,0-1.86-.18"/><path class="cls-15" d="M778.85,75.25H525.36a11.17,11.17,0,0,0-2,.17,8.74,8.74,0,0,0-1.65.46,4.15,4.15,0,0,0-1.17.68,1.49,1.49,0,0,0-.52.83,1,1,0,0,0,.27.83,2.71,2.71,0,0,0,1,.67,6.32,6.32,0,0,0,1.5.46,10.28,10.28,0,0,0,1.9.16H776.32a12.24,12.24,0,0,0,2-.16,11.12,11.12,0,0,0,1.85-.46,7.09,7.09,0,0,0,1.46-.67,2.57,2.57,0,0,0,.89-.83.9.9,0,0,0,.11-.83,1.47,1.47,0,0,0-.66-.68,4.53,4.53,0,0,0-1.31-.46,9.12,9.12,0,0,0-1.83-.17"/><path class="cls-15" d="M773.28,84.64H582.69a12.31,12.31,0,0,0-2,.16,9.2,9.2,0,0,0-1.67.45,4.56,4.56,0,0,0-1.21.66,1.55,1.55,0,0,0-.59.8.93.93,0,0,0,.18.8,2.42,2.42,0,0,0,.88.66,6,6,0,0,0,1.44.43,9.55,9.55,0,0,0,1.85.17H770.83a11.79,11.79,0,0,0,2-.17,11.44,11.44,0,0,0,1.81-.43,6.67,6.67,0,0,0,1.44-.66,2.63,2.63,0,0,0,.87-.8.87.87,0,0,0,.09-.8,1.37,1.37,0,0,0-.65-.66,4.5,4.5,0,0,0-1.29-.45,9.66,9.66,0,0,0-1.81-.16"/><path class="cls-15" d="M568.54,84.64H504.28a11.78,11.78,0,0,0-1.93.16,8.52,8.52,0,0,0-1.61.45,3.94,3.94,0,0,0-1.12.66,1.27,1.27,0,0,0-.48.8,1,1,0,0,0,.29.8,2.84,2.84,0,0,0,1,.66,6.86,6.86,0,0,0,1.5.43,9.92,9.92,0,0,0,1.87.17h63.8a10.91,10.91,0,0,0,1.93-.17,8.8,8.8,0,0,0,1.65-.43,4.34,4.34,0,0,0,1.2-.66,1.53,1.53,0,0,0,.58-.8.93.93,0,0,0-.18-.8,2.46,2.46,0,0,0-.89-.66,6.2,6.2,0,0,0-1.45-.45,10.69,10.69,0,0,0-1.87-.16"/><path class="cls-15" d="M341.38,87.4H277.43a10.57,10.57,0,0,0-1.86.16,5.53,5.53,0,0,0-1.42.44,2.26,2.26,0,0,0-.86.65.9.9,0,0,0-.16.8,1.61,1.61,0,0,0,.6.79,4.57,4.57,0,0,0,1.23.65,10,10,0,0,0,1.66.44,12,12,0,0,0,1.93.16H342a10.83,10.83,0,0,0,1.86-.16,7.12,7.12,0,0,0,1.47-.44,2.56,2.56,0,0,0,.94-.65,1,1,0,0,0,.26-.79,1.41,1.41,0,0,0-.51-.8,4.17,4.17,0,0,0-1.14-.65,7.77,7.77,0,0,0-1.62-.44,11.74,11.74,0,0,0-1.92-.16"/><path class="cls-15" d="M343,97.73H280.25a10.23,10.23,0,0,0-1.82.15,5.79,5.79,0,0,0-1.4.43,2.24,2.24,0,0,0-.85.63.87.87,0,0,0-.16.76,1.56,1.56,0,0,0,.59.77,4.34,4.34,0,0,0,1.2.62,8.8,8.8,0,0,0,1.63.42,11.56,11.56,0,0,0,1.89.16h62.35a10.39,10.39,0,0,0,1.83-.16,6.31,6.31,0,0,0,1.44-.42,2.48,2.48,0,0,0,.93-.62,1,1,0,0,0,.26-.77,1.32,1.32,0,0,0-.5-.76,3.92,3.92,0,0,0-1.12-.63,8.14,8.14,0,0,0-1.59-.43,11.31,11.31,0,0,0-1.89-.15"/><path class="cls-15" d="M344.65,107.69H283a9.88,9.88,0,0,0-1.79.15,6.29,6.29,0,0,0-1.38.41,2.18,2.18,0,0,0-.84.61.83.83,0,0,0-.16.74,1.56,1.56,0,0,0,.58.74,4.72,4.72,0,0,0,1.17.6,8.7,8.7,0,0,0,1.6.4,11.21,11.21,0,0,0,1.86.15h61.25a10,10,0,0,0,1.79-.15,6,6,0,0,0,1.42-.4,2.61,2.61,0,0,0,.91-.6.88.88,0,0,0,.26-.74,1.21,1.21,0,0,0-.48-.74,3.91,3.91,0,0,0-1.1-.61,8.83,8.83,0,0,0-1.56-.41,11,11,0,0,0-1.86-.15"/><path class="cls-15" d="M767.89,93.73H532.1a10.62,10.62,0,0,0-1.91.16,8.25,8.25,0,0,0-1.6.43,3.92,3.92,0,0,0-1.14.64,1.34,1.34,0,0,0-.51.77.91.91,0,0,0,.25.78,2.57,2.57,0,0,0,.92.64,6.79,6.79,0,0,0,1.45.42,10.51,10.51,0,0,0,1.84.16H765.52a12.64,12.64,0,0,0,2-.16,12.9,12.9,0,0,0,1.78-.42,6.52,6.52,0,0,0,1.4-.64,2.5,2.5,0,0,0,.85-.78.83.83,0,0,0,.09-.77,1.38,1.38,0,0,0-.65-.64,4.45,4.45,0,0,0-1.28-.43,8.58,8.58,0,0,0-1.78-.16"/><path class="cls-15" d="M714.18,178.16H513.69a11.71,11.71,0,0,0-1.61.12,7.69,7.69,0,0,0-1.35.31,3.58,3.58,0,0,0-1,.46,1,1,0,0,0-.41.57.64.64,0,0,0,.24.56,2.28,2.28,0,0,0,.8.46,6.09,6.09,0,0,0,1.24.3,9.63,9.63,0,0,0,1.57.12H712.49a11.38,11.38,0,0,0,1.66-.12,9.77,9.77,0,0,0,1.47-.3,5.73,5.73,0,0,0,1.15-.46,1.68,1.68,0,0,0,.65-.56.54.54,0,0,0,0-.57,1.34,1.34,0,0,0-.61-.46,4.46,4.46,0,0,0-1.12-.31,9.8,9.8,0,0,0-1.53-.12"/><path class="cls-15" d="M225.72,178.16H148.25a9.9,9.9,0,0,0-1.53.12,4.37,4.37,0,0,0-1.11.31,1.34,1.34,0,0,0-.61.46.54.54,0,0,0,0,.57,1.72,1.72,0,0,0,.66.56,6,6,0,0,0,1.15.46,10.05,10.05,0,0,0,1.49.3,11.14,11.14,0,0,0,1.65.12h77a9.08,9.08,0,0,0,1.54-.12,5.13,5.13,0,0,0,1.16-.3,1.68,1.68,0,0,0,.68-.46.52.52,0,0,0,.08-.56,1.37,1.37,0,0,0-.56-.57,4.9,4.9,0,0,0-1.07-.46,9.32,9.32,0,0,0-1.44-.31,12.4,12.4,0,0,0-1.64-.12"/></g></g></svg>