<svg xmlns="http://www.w3.org/2000/svg" viewBox="0 0 1924 396.65"><defs><style>.cls-1{fill:#4f090e;}.cls-2{fill:none;stroke:#4f090e;stroke-miterlimit:10;stroke-width:39px;}</style></defs><title>not-found</title><g id="Capa_2" data-name="Capa 2"><g id="Capa_1-2" data-name="Capa 1"><path class="cls-1" d="M744.52,68.13h92.36a0,0,0,0,1,0,0V326.49a0,0,0,0,1,0,0H744.52A127.5,127.5,0,0,1,617,199v-3.36a127.5,127.5,0,0,1,127.5-127.5Z"/><path class="cls-1" d="M836.87,117.78H976.44a19.5,19.5,0,0,1,19.5,19.5v.51a19.5,19.5,0,0,1-19.5,19.5H836.87a0,0,0,0,1,0,0V117.78A0,0,0,0,1,836.87,117.78Z"/><path class="cls-1" d="M836.87,231.25H976.44a19.5,19.5,0,0,1,19.5,19.5v.51a19.5,19.5,0,0,1-19.5,19.5H836.87a0,0,0,0,1,0,0V231.25A0,0,0,0,1,836.87,231.25Z"/><path class="cls-2" d="M641.33,196.8H481.25A90.17,90.17,0,0,0,391.08,287h0a90.17,90.17,0,0,1-90.17,90.17H0"/><path class="cls-1" d="M1214.63,70.16H1307a0,0,0,0,1,0,0V328.52a0,0,0,0,1,0,0h-92.36A127.5,127.5,0,0,1,1087.13,201v-3.36a127.5,127.5,0,0,1,127.5-127.5Z" transform="translate(2394.11 398.67) rotate(180)"/><path class="cls-2" d="M1282.67,199.84h160.08a90.17,90.17,0,0,0,90.17-90.17h0a90.17,90.17,0,0,1,90.17-90.17H1924"/></g></g></svg>