<?xml version="1.0" encoding="utf-8"?>
<!-- Generator: Adobe Illustrator 22.1.0, SVG Export Plug-In . SVG Version: 6.00 Build 0)  -->
<svg version="1.1" id="Capa_1" xmlns="http://www.w3.org/2000/svg" xmlns:xlink="http://www.w3.org/1999/xlink" x="0px" y="0px"
	 viewBox="0 0 590.1 452.2" style="enable-background:new 0 0 590.1 452.2;" xml:space="preserve">
<style type="text/css">
	.st0{fill:none;}
	.st1{fill:#FFFFFF;}
	.st2{fill:#98171D;}
	.st3{fill:#FFCCCC;}
	.st4{fill:#EABBBB;}
	.st5{fill:#F9E1E1;}
	.st6{fill:#D3D3D3;}
	.st7{fill:#969696;}
</style>
<title>not-found</title>
<g id="Capa_2_1_">
	<g id="Capa_1-2">
		<path class="st0" d="M367.7,406c-10.3,0-20.4-2.9-29.2-8.3l-0.7-0.4v32.5h35.9l5.8-25.1C375.7,405.6,371.7,406,367.7,406z"/>
		<path class="st1" d="M380.1,398.4l0.9-0.2l7.3-31.9l-14.6,3.7c-11.1,2.8-22.4-3.9-25.2-15l-10.7-42.1v77
			C349.9,399,365.5,402.1,380.1,398.4z"/>
		<path d="M337.9,312.9l10.7,42.1c2.8,11.1,14.1,17.8,25.2,15l14.6-3.7l1.5-6.6l-17.6,4.5c-7.9,2-15.9-2.8-17.9-10.7l-17.9-70.6
			l-0.5,0.1c1.3,3.7,2,7.5,2,11.4L337.9,312.9z"/>
		<path d="M367.7,406c4,0,7.9-0.4,11.8-1.3l1.5-6.5l-0.9,0.2c-14.7,3.7-30.2,0.5-42.3-8.5v7.4l0.7,0.4
			C347.3,403.1,357.4,406,367.7,406z"/>
		<path class="st1" d="M240.9,430c7.9-44.3,19.9-115.8,19.6-126.6c-3.4-1.8-6.1-5.2-8-10c-0.6-1.6-0.9-3.2-1.1-4.8L235,299.3l-3.3-5
			l21.2-14c-12.4-1.7-24.1-6.5-34.2-13.9c-5.2,0.9-10,3.3-13.9,6.8l-1.7,1.6L203,275v48.4l0,0l2,2.2l-9.8,9v111.6h59l-13.6-14.8
			L240.9,430z"/>
		<path class="st1" d="M331.9,294.5c0-13.8-9.9-25.6-23.5-28c-6.2,4.5-13.1,8.1-20.4,10.5l25.5,17.3l-3.4,5L293.4,288
			c-0.2,1.8-0.6,3.6-1.2,5.4c-1.9,4.8-4.6,8.2-8,10c-0.3,10.8,11.9,82.2,20,126.5h27.6L331.9,294.5z"/>
		<polygon points="189.3,452.1 189.3,452.2 259.7,452.2 259.6,452.1 		"/>
		<polygon points="285.6,452.1 285.5,452.2 289.3,452.2 289.3,452.1 		"/>
		<path d="M199,270.5l1.8-1.7C200.2,269.4,199.6,269.9,199,270.5z"/>
		<path d="M203.2,274.8l-0.1,0.1l0,0L203.2,274.8z"/>
		<path d="M308.4,266.4c13.6,2.4,23.4,14.2,23.5,28v135.4h6V294.5c0-3.9-0.7-7.7-2-11.4c-3.6-10.1-11.6-17.9-21.7-21.3
			C312.3,263.4,310.4,264.9,308.4,266.4z"/>
		<path d="M205.1,272.9l-0.3,0.3c3.9-3.5,8.7-5.8,13.9-6.8c-2-1.5-4-3-5.8-4.7c-4.4,1.5-8.5,3.8-12,6.9L205.1,272.9z"/>
		<polygon points="254.3,446.4 254.2,446.2 195.3,446.2 195.3,334.6 189.3,340.2 189.3,446.4 		"/>
		<path class="st2" d="M287.1,366.8c-3.1-18.7-5.5-33.6-6.9-44.4c-0.9-6.5-1.5-11.5-1.8-15c-0.4-4.9-0.5-8,2.1-9s4.5-3.4,6.1-7.3
			c0.6-2,0.9-4,1-6.1l-8-5.7c-5.3,1.1-10.7,1.7-16.1,1.7h-0.5l-6,4.3c0.1,2,0.4,3.9,1,5.8c1.6,3.9,3.6,6.4,6.1,7.3s2.5,4.1,2.1,9
			c-0.3,3.5-0.8,8.5-1.7,15c-1.5,10.8-3.7,25.8-6.8,44.5c-4.6,27.9-9.6,56-10.7,62.7l15.3,16.6h20.4l6.5-7.1v-9.3h8.5l0.3-0.3
			C296.9,422.9,291.8,394.8,287.1,366.8z"/>
		<path d="M284.3,303.3c3.4-1.8,6-5.2,8-10c0.6-1.7,1-3.5,1.2-5.4l-13-8.8l-0.8,0.2l8,5.7c-0.1,2.1-0.4,4.1-1,6.1
			c-1.5,3.9-3.6,6.4-6.1,7.3s-2.5,4.1-2.1,9c0.3,3.5,0.9,8.5,1.8,15c1.5,10.8,3.8,25.8,6.9,44.4c4.7,27.9,9.7,56,10.9,62.6l-0.3,0.3
			h6.4C296.2,385.5,284,314.1,284.3,303.3z"/>
		<polygon points="259.6,452.1 259.7,452.2 285.5,452.2 285.6,452.1 		"/>
		<path d="M262.4,446.2l-15.3-16.6c1.2-6.6,6.2-34.8,10.7-62.7c3.1-18.7,5.4-33.6,6.8-44.5c0.9-6.5,1.4-11.5,1.7-15
			c0.4-4.9,0.5-8-2.1-9s-4.5-3.4-6.1-7.3c-0.6-1.9-0.9-3.8-1-5.8l6-4.3h-0.3l-11.4,7.5c0.2,1.7,0.6,3.3,1.1,4.8
			c1.9,4.8,4.6,8.2,8,10c0.3,10.8-11.7,82.3-19.6,126.6l-0.3,1.5l13.6,14.8l0.1,0.1h35v-7.3l-6.5,7.1L262.4,446.2z"/>
		<path d="M235,299.3l16.3-10.8l11.4-7.5c-3.3,0-6.5-0.3-9.8-0.7l-21.2,14L235,299.3z"/>
		<path d="M293.4,287.9l16.7,11.3l3.4-5L288,277c-2.5,0.8-5,1.6-7.5,2.1L293.4,287.9z"/>
		<path class="st3" d="M290.4,79.8c-25.7,2.8-75.6,7.6-78.7,26.8c-8.9,56-9.1,113.4-3.8,129.4c5.1,15.2,29.3,37.3,59.2,39
			c37.3-1.9,66.6-32.8,66.6-70.1V92.2C323.1,79.8,301.8,82.2,290.4,79.8z"/>
		<path class="st4" d="M217.2,231.1c-5.4-16-8.9-58.9,0-115c3-19.2,51.8-19,77.5-21.8h-0.2c-24.4-5.3-87.6-24.6-87.8,2.5
			c-0.3,31-5,52.8-9.4,66.7l-2.9,23.8l-0.9,12v5.6c0.1,38.7,31.5,70.1,70.2,70.2c1.2,0,2.4,0,3.6-0.1
			C238.3,267.6,222.3,246.3,217.2,231.1z"/>
		<path class="st5" d="M322.3,196.1c0.5,29.1-9.1,44.3-15.6,54.4c13.8-10.4,25.1-22.3,24.1-79c-0.4-24.8-0.6-36.8-0.9-49.1
			c-0.2-13.4-8.3-11.3-8.1-2.1C322.2,141.9,321.5,150.2,322.3,196.1z"/>
		<path class="st5" d="M280.7,213.1c-2.3,0.1-4,2-3.9,4.2c0.1,2.3,2,4,4.2,3.9c1.4-0.1,2.6-0.8,3.3-2c0-0.1,0-0.1,0-0.2
			C284.5,216.5,283,214.2,280.7,213.1z"/>
		<path d="M187.4,76.2c0.1-36,25.3-67.1,60.5-74.6c-35.5,7.2-61,38.4-61,74.6v81.7l0.5-0.1V76.2z"/>
		<path d="M197.2,163.1L197.2,163.1v0.3c4.4-13.9,9.1-35.7,9.4-66.7c0.3-27.1,63.4-7.8,87.8-2.5h0.2c11.3,2.4,26.9,2.6,39.1-2.2v-16
			c-0.5-38.8-32.3-69.8-71.1-69.4c-38.1,0.5-68.9,31.3-69.4,69.4V157h3.9L197.2,163.1z"/>
		<path class="st1" d="M221.8,284.3l-18.8-9.3l-62.3,60.4c-8.4,7.9-21.5,7.5-29.3-0.9c0,0,0,0,0,0L75.3,296L54,315.9l36.6,39
			c9.2,9.9,22,15.6,35.6,15.8c13.6,0.3,26.7-4.8,36.6-14.2l38.2-35.3l2,2.2l0,0L221.8,284.3z"/>
		<path d="M195.3,334.6l9.8-9l-2-2.2l-2-2.2l-38.3,35.3c-9.9,9.4-23,14.5-36.6,14.2c-13.5-0.2-26.4-5.9-35.6-15.8l-36.6-39L75.3,296
			l36.1,38.5c7.8,8.4,21,8.8,29.3,0.9c0,0,0,0,0,0l62.3-60.4l0.1-0.1l1.7-1.6l0.3-0.3l-4.1-4.3l0,0l-0.2,0.2l-1.8,1.7L136.6,331
			c-5.9,5.6-15.2,5.3-20.8-0.6c0,0,0,0,0,0l-40.2-42.9l-1.9,1.8l0.4,1.9c0.7,3.1-0.3,6.3-2.6,8.4l-13.7,12.9
			c-0.5,0.6-1.3,0.9-2.1,0.9c-1.3,0-3-0.8-5.5-2l-4.6,4.4L86.3,359c10.3,11.1,24.7,17.5,39.8,17.7h1.2c14.8,0,28.9-5.7,39.7-15.8
			l22.4-20.8L195.3,334.6z"/>
		<line class="st0" x1="576.5" y1="449.2" x2="576.5" y2="449.2"/>
		<polygon points="559.2,446.4 559.2,452.1 576.5,452.1 576.5,449.2 576.5,446.4 		"/>
		<polygon points="285.6,452.1 289.3,452.1 289.3,446.4 254.3,446.4 189.3,446.4 144.1,446.4 144.1,452.1 189.3,452.1 259.6,452.1 
					"/>
		<polygon class="st6" points="295.3,435.8 295.3,446.2 331.9,446.2 388.1,446.2 388.1,435.8 376.2,435.8 		"/>
		<path d="M388.1,446.2h-92.8v-10.4h80.9c-1.7,0-3-1.3-3-3c0-0.2,0-0.5,0.1-0.7l0.5-2.3h-84.5v22.4h98.8V446.2z"/>
		<rect x="394.1" y="435.8" class="st6" width="159" height="10.4"/>
		<path d="M559.2,446.4v-13.2l-0.1,0.3c-0.3,1.4-1.5,2.3-2.9,2.3h-3v10.4h-159v-10.4h-6v16.4h171V446.4L559.2,446.4z"/>
		<path class="st6" d="M422.1,294.8h159.1l-7-9.4H413.1L380,429.8h8.8l30.4-132.6C419.5,295.8,420.7,294.9,422.1,294.8z"/>
		<path d="M388.4,366.3l-7.4,31.9l-1.5,6.5l-5.8,25.1l-0.5,2.3c-0.4,1.6,0.6,3.2,2.2,3.6c0.2,0.1,0.5,0.1,0.7,0.1h14.9
			c-0.9,0-1.8-0.4-2.4-1.1c-0.6-0.7-0.8-1.7-0.6-2.5l31-134.9l-30.4,132.6H380l33.1-144.4h161.1l7,9.4h5.9c1.7,0,3,1.4,2.9,3.1
			c0,0.2,0,0.4-0.1,0.6l-0.1,0.4c0.4-1,0.2-2.1-0.4-2.9l-11.4-15.4c-0.6-0.8-1.5-1.2-2.4-1.2h-165c-1.4,0-2.6,1-2.9,2.3l-17.9,78
			L388.4,366.3z"/>
		<path class="st6" d="M424.5,300.8l-29.6,129h158.9l29.6-129H424.5z M500.4,365.3c-1.3,6.2-7.4,11.2-13.6,11.2s-10.2-5-8.9-11.2
			s7.4-11.2,13.6-11.2S501.6,359.1,500.4,365.3z"/>
		<path d="M589.5,296c-0.6-0.7-1.4-1.1-2.3-1.1h-165c-1.4,0-2.6,1-2.9,2.3l-31,135c-0.2,0.9,0,1.8,0.6,2.5c0.6,0.7,1.4,1.1,2.4,1.1
			h165c1.4,0,2.6-1,2.9-2.3l0.1-0.3L589.9,299l0.1-0.4C590.2,297.7,590,296.7,589.5,296z M394.9,429.8l29.6-129h158.9l-29.6,129
			H394.9z"/>
		<path class="st7" d="M491.5,354.1c-6.2,0-12.3,5-13.6,11.2s2.7,11.2,8.9,11.2s12.3-5,13.6-11.2S497.7,354.1,491.5,354.1z"/>
		<path d="M249.1,146.8h0.6c3.5,0,6.3,2.8,6.3,6.3v27.8c0,3.5-2.8,6.3-6.3,6.3h-0.6c-3.5,0-6.3-2.8-6.3-6.3v-27.8
			C242.8,149.6,245.6,146.8,249.1,146.8z"/>
		<path d="M296,146.8h0.6c3.5,0,6.3,2.8,6.3,6.3v27.8c0,3.5-2.8,6.3-6.3,6.3H296c-3.5,0-6.3-2.8-6.3-6.3v-27.8
			C289.7,149.6,292.5,146.8,296,146.8z"/>
		<circle cx="272.6" cy="250.5" r="12.5"/>
		<path d="M218.8,266.4c10.1,7.4,21.8,12.1,34.2,13.9c3.2,0.4,6.5,0.7,9.8,0.7h0.8c5.4,0,10.8-0.6,16.1-1.7l0.8-0.2
			c2.5-0.6,5.1-1.3,7.5-2.1c7.3-2.5,14.2-6,20.4-10.6c2-1.5,4-3,5.8-4.7c16.3-14.4,25.6-35.2,25.6-56.9V76.2
			c-0.5-42.1-35-75.8-77.1-75.4c-41.4,0.5-74.9,33.9-75.4,75.4v81.5c1.6-0.4,3.3-0.6,5-0.6h1V76.2c0.5-38.8,32.3-69.8,71.1-69.4
			c38.1,0.5,68.9,31.3,69.4,69.4v128.6c0,37.4-29.3,68.2-66.6,70.1c-1.2,0.1-2.4,0.1-3.6,0.1c-38.8,0-70.2-31.5-70.2-70.2v-5.6h-1
			c-1.7,0-3.4-0.2-5-0.6v6.3c0,21.8,9.3,42.5,25.6,56.9C214.8,263.4,216.8,264.9,218.8,266.4z"/>
		<path class="st4" d="M195.4,174.8c-3.1,0-5.6,2.5-5.6,5.6h-6c0-6.4,5.2-11.6,11.6-11.6h1.8v-5.6h-4.9c-8.3,0-15,6.7-15,15
			s6.7,15,15,15h4.9v-18.4H195.4z"/>
		<path d="M192.4,199.2h4.9v-6h-4.9c-8.3,0-15-6.7-15-15s6.7-15,15-15h4.9v-6h-4.9c-1.7,0-3.4,0.2-5,0.6l-0.5,0.1
			c-11.2,3-17.8,14.6-14.7,25.8c2,7.4,7.8,13,15.2,14.9C189,199,190.7,199.2,192.4,199.2z"/>
		<path d="M183.9,180.4h6c0-3.1,2.5-5.6,5.6-5.6h2.3v-6h-2.3C189.1,168.8,183.9,174,183.9,180.4z"/>
		<path d="M290.4,219.1c0.1-6.8-5.3-12.3-12-12.5h-7.9v6h7.9c0.8,0,1.6,0.2,2.3,0.5c2.3,1.1,3.7,3.4,3.7,6c0,0.1,0,0.1,0,0.2
			c0,3.4-2.6,6.2-6,6.3h-7.9v6h7.9C285.2,231.4,290.6,225.8,290.4,219.1z"/>
		<path class="st4" d="M252.3,192.9c-16.3,2.5-19.3-13.8-19.3-13.8s-5.3,11.4,1.5,17C242.8,203,252.3,192.9,252.3,192.9z"/>
		<path class="st4" d="M239.1,204.9c0,0,13.1,6.1,14.4-8.7C253.5,196.2,248.1,204.4,239.1,204.9z"/>
		<path class="st4" d="M292.1,192.9c0,0,9.5,10.1,17.8,3.3c6.8-5.6,1.5-17,1.5-17S308.4,195.4,292.1,192.9z"/>
		<path class="st4" d="M290.9,196.2c1.3,14.9,14.4,8.7,14.4,8.7C296.4,204.4,290.9,196.2,290.9,196.2z"/>
		<path class="st3" d="M42.8,300.5c7.3,4,10.6,5.6,12.1,6.3l12.4-11.7c0.7-0.7,1.1-1.7,0.8-2.7l-7.6-34c-0.2-0.9-0.8-1.6-1.6-2
			c-0.8-0.3-1.6-0.3-2.4,0c-0.8,0.4-1.3,1-1.5,1.8l-0.2,0.6c-1.4,4.7-6.3,7.4-11,6.1c-1-0.3-2-0.8-2.8-1.4L25.4,252
			c-0.5-0.4-1.1-0.6-1.7-0.6c-0.2,0-0.3,0-0.5,0l-12,2.2c-3.4,0.6-5.6,3.9-5,7.3c0.2,0.9,0.5,1.7,1,2.4l9.2,13.2
			C23.2,286.5,32.3,294.7,42.8,300.5z"/>
		<path d="M55.7,313.3c0.8,0,1.5-0.3,2.1-0.9l13.7-12.9c2.3-2.1,3.3-5.3,2.6-8.4l-0.4-1.9l-7.2-32.1c-1.1-4.8-5.8-7.8-10.6-6.7
			c-3.2,0.7-5.7,3.1-6.6,6.2l-0.2,0.6c-0.4,1.5-2,2.4-3.6,1.9c-0.3-0.1-0.6-0.2-0.9-0.4l-15.7-11.6c-2-1.4-4.4-2-6.9-1.6l-12,2.2
			C3.4,249-1,255.4,0.3,262c0.3,1.7,1,3.3,2,4.7l9.1,13.3c7.4,10.7,17.2,19.5,28.6,25.8c4.1,2.3,7.4,4,9.8,5.2l0.5,0.3
			C52.6,312.4,54.3,313.3,55.7,313.3z M6.3,257.9c0.7-2.2,2.6-3.8,4.8-4.2l12-2.2c0.2,0,0.3,0,0.5,0c0.6,0,1.2,0.2,1.7,0.6
			l15.7,11.6c3.9,2.9,9.5,2.1,12.4-1.9c0.6-0.8,1.1-1.8,1.4-2.8l0.2-0.6c0.2-0.8,0.8-1.5,1.5-1.8c0.8-0.3,1.6-0.3,2.4,0
			c0.8,0.4,1.4,1.1,1.6,2l7.6,34c0.2,1-0.1,2-0.8,2.7l-12.5,11.6c-1.5-0.7-4.8-2.3-12.1-6.3c-10.6-5.8-19.6-14-26.5-23.9l-9.2-13.2
			C6,261.7,5.7,259.7,6.3,257.9z"/>
		<path class="st4" d="M30.9,280.1c0,0,19.6,4.8,25.9,13.9C56.8,294.1,55.2,272.6,30.9,280.1z"/>
		<path class="st4" d="M23.6,275.3c5.5-5.6,22.9-9.3,22.9-9.3C27.3,264.7,23.6,275.3,23.6,275.3z"/>
	</g>
</g>
</svg>
